  <svg    width="1000"    height="1000"    viewBox="0 0 1000 1000"    xmlns="http://www.w3.org/2000/svg"  >    <defs>      <filter id="grain" x="-50vw" y="-50vh" width="100vw" height="100vh">    <feFlood flood-color="#ffffff" result="neutral-gray" />      <feTurbulence      in="neutral-gray"      type="fractalNoise"      baseFrequency="2.5"      numOctaves="100"      stitchTiles="stitch"      result="noise"    />      <feColorMatrix      in="noise"      type="saturate"      values="0"      result="destaturatedNoise"    ></feColorMatrix>      <feComponentTransfer in="desaturatedNoise" result="theNoise">      <feFuncA type="table" tableValues="0 0 0.1 0"></feFuncA>    </feComponentTransfer>      <feBlend      in="SourceGraphic"      in2="theNoise"      mode="soft-light"      result="noisy-image"    />  </filter>                  <radialGradient      id="radialGradientId"      r="100%"      cx="110%"      cy="93%"    >      <stop offset="0%"  stop-color="#21D4FD" /><stop offset="100%"  stop-color="#B721FF" />    </radialGradient>                        <clipPath id="shape">        <path fill="currentColor" d="M783.5,672.5Q775,845,605.5,813Q436,781,330.5,707Q225,633,200.5,488.5Q176,344,286.5,195.5Q397,47,590,96Q783,145,787.5,322.5Q792,500,783.5,672.5Z"></path>      </clipPath>    </defs>          <g filter="url(#grain)" clip-path="url(#shape)">      <path fill="url(#radialGradientId)" d="M783.5,672.5Q775,845,605.5,813Q436,781,330.5,707Q225,633,200.5,488.5Q176,344,286.5,195.5Q397,47,590,96Q783,145,787.5,322.5Q792,500,783.5,672.5Z" />    </g>        </svg>