<svg id="visual" viewBox="0 0 960 540" width="960" height="540" xmlns="http://www.w3.org/2000/svg" version="1.1"><rect x="0" y="0" width="960" height="540" fill="#001220"></rect><defs><linearGradient id="grad1_0" x1="43.8%" y1="0%" x2="100%" y2="100%"><stop offset="14.444444444444446%" stop-color="#001220" stop-opacity="1"></stop><stop offset="85.55555555555554%" stop-color="#001220" stop-opacity="1"></stop></linearGradient></defs><defs><linearGradient id="grad2_0" x1="0%" y1="0%" x2="56.3%" y2="100%"><stop offset="14.444444444444446%" stop-color="#001220" stop-opacity="1"></stop><stop offset="85.55555555555554%" stop-color="#001220" stop-opacity="1"></stop></linearGradient></defs><g transform="translate(960, 0)"><path d="M0 486C-45.6 438.8 -91.1 391.6 -155.8 376C-220.4 360.4 -304 376.5 -343.7 343.7C-383.3 310.8 -379 229.2 -395.4 163.8C-411.8 98.4 -448.9 49.2 -486 0L0 0Z" fill="#F7CACA"></path></g><g transform="translate(0, 540)"><path d="M0 -486C57.6 -457.5 115.1 -429 166.1 -401C217 -372.9 261.4 -345.3 311.8 -311.8C362.3 -278.3 419 -238.9 449 -186C479.1 -133 482.5 -66.5 486 0L0 0Z" fill="#F7CACA"></path></g></svg>