<?xml version="1.0" encoding="UTF-8" standalone="no"?>
<!DOCTYPE svg PUBLIC "-//W3C//DTD SVG 1.1//EN" "http://www.w3.org/Graphics/SVG/1.1/DTD/svg11.dtd">
<!-- Created with Vectornator (http://vectornator.io/) -->
<svg height="100%" stroke-miterlimit="10" style="fill-rule:nonzero;clip-rule:evenodd;stroke-linecap:round;stroke-linejoin:round;" version="1.1" viewBox="0 0 263 159" width="100%" xml:space="preserve" xmlns="http://www.w3.org/2000/svg" xmlns:vectornator="http://vectornator.io" xmlns:xlink="http://www.w3.org/1999/xlink">
<defs/>
<g id="Untitled" vectornator:layerName="Untitled">
<path d="M161.125 118.562C193.812 118.562 220.309 92.0641 220.309 59.3778C220.309 26.6914 193.812 0.193848 161.125 0.193848C128.439 0.193848 101.941 26.6914 101.941 59.3778C101.941 92.0641 128.439 118.562 161.125 118.562Z" fill="#53a9cc" fill-rule="evenodd" opacity="1" stroke="none"/>
<path d="M230.31 159C248.364 159 262.999 144.364 262.999 126.311C262.999 108.257 248.364 93.6216 230.31 93.6216C212.257 93.6216 197.621 108.257 197.621 126.311C197.621 144.364 212.257 159 230.31 159Z" fill="#5309cd" fill-rule="evenodd" opacity="1" stroke="none"/>
<path d="M35.5173 159C55.133 159 71.0346 143.098 71.0346 123.483C71.0346 103.867 55.133 87.9653 35.5173 87.9653C15.9016 87.9653 0 103.867 0 123.483C0 143.098 15.9016 159 35.5173 159Z" fill="#9b2f87" fill-rule="evenodd" opacity="1" stroke="none"/>
<path d="M59.9109 81.359C75.878 81.359 88.8219 68.4151 88.8219 52.448C88.8219 36.481 75.878 23.5371 59.9109 23.5371C43.9439 23.5371 31 36.481 31 52.448C31 68.4151 43.9439 81.359 59.9109 81.359Z" fill="#f27834" fill-rule="evenodd" opacity="1" stroke="none"/>
<path d="M161.125 69.3774C166.648 69.3774 171.125 64.9003 171.125 59.3774C171.125 53.8546 166.648 49.3774 161.125 49.3774C155.602 49.3774 151.125 53.8546 151.125 59.3774C151.125 64.9003 155.602 69.3774 161.125 69.3774Z" fill="#ffffff" fill-rule="evenodd" opacity="1" stroke="none"/>
<path d="M230.309 136.311C235.831 136.311 240.309 131.834 240.309 126.311C240.309 120.788 235.831 116.311 230.309 116.311C224.786 116.311 220.309 120.788 220.309 126.311C220.309 131.834 224.786 136.311 230.309 136.311Z" fill="#ffffff" fill-rule="evenodd" opacity="1" stroke="none"/>
<path d="M35.5195 133.483C41.0424 133.483 45.5195 129.006 45.5195 123.483C45.5195 117.96 41.0424 113.483 35.5195 113.483C29.9967 113.483 25.5195 117.96 25.5195 123.483C25.5195 129.006 29.9967 133.483 35.5195 133.483Z" fill="#ffffff" fill-rule="evenodd" opacity="1" stroke="none"/>
<path d="M59.9141 62.4482C65.4369 62.4482 69.9141 57.9711 69.9141 52.4482C69.9141 46.9254 65.4369 42.4482 59.9141 42.4482C54.3912 42.4482 49.9141 46.9254 49.9141 52.4482C49.9141 57.9711 54.3912 62.4482 59.9141 62.4482Z" fill="#ffffff" fill-rule="evenodd" opacity="1" stroke="none"/>
<path d="M53.0859 115.836L144.066 68.3677" fill="none" fill-rule="evenodd" opacity="1" stroke="#ffffff" stroke-dasharray="6.0" stroke-linecap="round" stroke-linejoin="bevel" stroke-width="3"/>
<path d="M75.043 54.5849L141.752 58.7681" fill="none" fill-rule="evenodd" opacity="1" stroke="#ffffff" stroke-dasharray="6.0" stroke-linecap="round" stroke-linejoin="bevel" stroke-width="3"/>
<path d="M218.371 113.589L173.238 70.4367" fill="none" fill-rule="evenodd" opacity="1" stroke="#ffffff" stroke-dasharray="6.0" stroke-linecap="round" stroke-linejoin="bevel" stroke-width="3"/>
</g>
</svg>
