<svg xmlns="http://www.w3.org/2000/svg" version="1.1" xmlns:xlink="http://www.w3.org/1999/xlink" xmlns:svgjs="http://svgjs.dev/svgjs" viewBox="0 0 800 800"><defs><linearGradient x1="50%" y1="0%" x2="50%" y2="100%" id="uundulate-grad"><stop stop-color="hsl(206, 75%, 49%)" stop-opacity="1" offset="45%"></stop><stop stop-color="hsl(331, 90%, 56%)" stop-opacity="1" offset="100%"></stop></linearGradient></defs><g stroke-width="2" stroke="url(#uundulate-grad)" fill="none"><path d="M723.513819736365 214.44633019397878C760.080867411486 330.0513124908068 633.1927758214432 557.6326069316945 563.8110541758076 657.0702135451484C494.42933253017213 756.5078201586023 492.7792039948281 692.7239839392988 390.481555837315 691.7468419385582C288.1839076798018 690.7696999378174 98.20046683259596 713.3629819187385 72.78234301974538 652.379931941594C47.3642192068948 591.3968819644497 202.74396105324104 513.6560423443522 268.47456153563303 399.0282020482646C334.205162018025 284.40036175217676 293.4893798767415 140.62085515668355 388.28922533522723 102.16629852037391C483.08907079371295 63.71174188406434 686.9467720612442 98.84134789715085 723.513819736365 214.44633019397878C760.080867411486 330.0513124908068 633.1927758214432 557.6326069316945 563.8110541758076 657.0702135451484 "></path><path d="M708.8086488863102 222.88058236378373C743.7135580307435 333.2307927380285 622.5931069675212 550.4674828861486 556.3650999421418 645.3851982899C490.1370929167624 740.3029136936515 488.56197022393394 679.4183427570437 390.9142151644895 678.4856163017913C293.2664601050451 677.5528898465387 111.91863020543963 699.1192044646906 87.65587565680949 640.9081113046891C63.3931211081794 582.6970181446877 211.71014741605535 508.4898530527764 274.45299333106595 399.0723691337837C337.1958392460765 289.65488521479085 298.3307744748513 152.41081073727463 388.82153604886037 115.70418849352455C479.31229762286944 78.99756624977448 673.9037397418766 112.53037198953888 708.8086488863102 222.88058236378373C743.7135580307435 333.2307927380285 622.5931069675212 550.4674828861486 556.3650999421418 645.3851982899 "></path><path d="M694.1034780362552 231.31480401601056C727.3462486500013 336.41024246767233 611.993438113599 543.3023283230248 548.9191457084758 633.7001525170738C485.84485330335247 724.0979767111228 484.3447364530398 666.1126710572106 391.34687449166415 665.2243601474463C298.3490125302885 664.3360492376821 125.63679357828323 684.8753964930646 102.52940829387364 629.4362601502062C79.42202300946406 573.9971238073476 220.67633377886966 503.3236332436227 280.43142512649877 399.1165057017248C340.18651647412787 294.90937815982693 303.17216907296097 164.2007358002876 389.3538467624935 129.24204794909707C475.5355244520259 94.2833600979065 660.860707422509 126.21936556434878 694.1034780362552 231.31480401601056C727.3462486500013 336.41024246767233 611.993438113599 543.3023283230248 548.9191457084758 633.7001525170738 "></path><path d="M679.3983071862002 239.74908670339363C710.9789392692591 339.5897532324723 601.3937692596769 536.1372347950571 541.4731914748097 622.0151677794037C481.55261368994275 707.8931007637503 480.12750268214563 652.8070603925337 391.7795338188387 651.9631650282577C303.43156495553194 651.1192696639816 139.3549569511269 670.6316495565951 117.40294093093775 617.9644700308795C95.45092491074865 565.2972905051639 229.64252014168403 498.1574744696252 286.4098569219317 399.16070330482216C343.17719370217924 300.16393214001914 308.01356367107076 175.9907218984568 389.88615747612664 142.77996843982578C471.7587512811824 109.56921498119476 647.8176751031414 139.90842017431493 679.3983071862002 239.74908670339363C710.9789392692591 339.5897532324723 601.3937692596769 536.1372347950571 541.4731914748097 622.0151677794037 "></path><path d="M664.6931363361452 248.18335413198764C694.6116298885169 342.76924873848316 590.7941004057548 528.9721260083004 534.0272372411439 610.3301677829445C477.2603740765329 691.6882095575887 475.9102689112515 639.5014344690676 392.2121931460133 638.7019546502797C308.51411738077536 637.9024748314921 153.07312032397056 656.3878873613364 132.2764735680019 606.4926646527638C111.47982681203325 556.5974419441911 238.6087065044983 492.9913004368386 292.3882887173645 399.20488564913046C346.1678709302307 305.41847086142235 312.85495826918054 187.78069273783694 390.4184681897598 156.31787367176548C467.981978110339 124.85505460569397 634.7746427837737 153.597459525492 664.6931363361452 248.18335413198764C694.6116298885169 342.76924873848316 590.7941004057548 528.9721260083004 534.0272372411439 610.3301677829445 "></path><path d="M649.9879502273013 256.6175910430035C678.2443052489855 345.948713726916 580.1944162930436 521.8069867039655 526.5812677486888 598.6451372689073C472.968119204334 675.4832878338489 471.69301988156815 626.1957780280236 392.6448372143989 625.4407137547239C313.5966545472296 624.6856494814244 166.79126843802516 642.1440946484995 147.14999094627694 595.0208287570698C127.50871345452879 547.8975628656401 247.5748776085236 487.82509588647383 298.36670525400837 399.24903747586063C349.15853289949314 310.67297906524743 317.69633760850115 199.57063305963896 390.95076364460385 169.855748386127C464.20518968070644 140.14086371261504 621.7315952056169 167.28646835909103 649.9879502273013 256.6175910430035C678.2443052489855 345.948713726916 580.1944162930436 521.8069867039655 526.5812677486888 598.6451372689073 "></path><path d="M635.2827946360353 265.0518584715975C661.8770111270323 349.1282092329269 569.5947626979105 514.6418779172088 519.1353287738118 586.960137272448C468.67589484971336 659.2783966276872 467.47580136946306 612.8901521045575 393.0775118003626 612.1795033767462C318.6792222312621 611.4688546489347 180.50944706965782 627.9003324532409 162.02353884213016 583.5490233789541C143.53763061460245 539.1977143046672 256.54107923012697 482.65892185368716 304.34515230823024 399.29321982016893C352.14922538633357 315.9275177866506 322.53774746540006 211.3606038990191 391.48308961702605 183.3936536180667C460.428431768652 155.4267033371143 608.6885781450385 180.97550771026812 635.2827946360353 265.0518584715975C661.8770111270323 349.1282092329269 569.5947626979105 514.6418779172088 519.1353287738118 586.960137272448 "></path><path d="M620.5776085271914 273.48611064140243C645.509686487501 352.3076894801487 558.9950785851993 507.47675387166305 511.68935928135693 575.2751220171998C464.38363997751435 643.0734901627366 463.2585523397797 599.5845109223023 393.51015586874814 598.9182777399793C323.76175939771645 598.2520445576561 194.22759518371242 613.6565549991931 176.8970562204052 572.0772027420492C159.56651725709804 530.4978504849053 265.5072503341522 477.49273256211154 310.3235688448741 399.33738690568816C355.1398873555959 321.18204124926467 327.3791268047207 223.1505594796102 392.0153850718701 196.9315435912173C456.65164333901953 170.71252770282445 595.6455305668817 194.66453180265614 620.5776085271914 273.48611064140243C645.509686487501 352.3076894801487 558.9950785851993 507.47675387166305 511.68935928135693 575.2751220171998 "></path><path d="M605.8724529359254 281.9203628112074C629.1423923655477 355.4871697273706 548.3954249900662 500.31162982611727 504.24342030647995 563.5901067619516C460.0914156228937 626.8685836977859 459.04133382767463 586.2788697400474 393.9428304547117 585.6570521032124C328.8443270817488 585.0352344663775 207.94577381534515 599.4127775451452 191.77060411625843 560.6053821051444C175.5954344171717 521.7979866651433 274.47345195575565 472.3265432705359 316.30201589909603 399.3815539912074C358.1305798424364 326.4365647118788 332.2205366616196 234.94051506020128 392.5477110442923 210.46943356436793C452.8748854269651 185.9983520685346 582.6025135063031 208.35355589504417 605.8724529359254 281.9203628112074C629.1423923655477 355.4871697273706 548.3954249900662 500.31162982611727 504.24342030647995 563.5901067619516 "></path><path d="M591.1672668270814 290.35464549859046C612.7750677260165 358.6666804921706 537.795740877355 493.1465362981497 496.79745081402484 551.9051220242816C455.7991607506948 610.6637077504134 454.8240847979914 572.9732590753704 394.3754745230973 572.3958569840238C333.9268642482032 571.818454892677 221.66392192939975 585.1690306086757 206.64412149453347 549.1335919858177C191.62432105966724 513.0981533629597 283.4396230597809 467.1603844965384 322.28043243573984 399.42575159430476C361.1212418116987 331.6911186920711 337.0619160009403 246.73050115837054 393.0800064991364 224.0073540550967C449.0980969973325 201.28420695182285 569.5594659281464 222.04261050501032 591.1672668270814 290.35464549859046C612.7750677260165 358.6666804921706 537.795740877355 493.1465362981497 496.79745081402484 551.9051220242816 "></path><path d="M576.4620807182374 298.7888976683954C596.4077430864852 361.8461607393925 527.1960567646438 485.98141225260395 489.35148132156985 540.2201067690334C451.5069058784959 594.4588012854628 450.6068357683082 559.6676178931154 394.80811859148287 559.1346313472568C339.00940141465753 558.6016448013984 235.38207004345435 570.9252531546279 221.51763887280856 537.6617713489128C207.65320770216277 504.39828954319773 292.40579416380615 461.9941952049627 328.25884897238365 399.469918679824C364.1119037809611 336.94564215468523 341.90329534026097 258.5204567389616 393.6123019539805 237.54524402824728C445.32130856769993 216.570031317533 556.5164183499899 235.73163459739834 576.4620807182374 298.7888976683954C596.4077430864852 361.8461607393925 527.1960567646438 485.98141225260395 489.35148132156985 540.2201067690334 "></path><path d="M561.7568946093934 307.22314983820036C580.0404184469539 365.02564098661435 516.5963726519326 478.81628820705816 481.90551182911474 528.5350915137851C447.214651006297 578.2538948205121 446.389586738625 546.3619767108603 395.24076265986844 545.87340571049C344.09193858111183 545.3848347101197 249.1002181575089 556.6814757005802 236.3911562510836 526.1899507120079C223.68209434465837 495.6984257234358 301.37196526783146 456.82800591338696 334.23726550902745 399.5140857653432C367.10256575022345 342.2001656172993 346.7446746795817 270.3104123195527 394.14459740882455 251.08313400139792C441.54452013806736 231.85585568324313 543.4733707718331 249.42065868978636 561.7568946093934 307.22314983820036C580.0404184469539 365.02564098661435 516.5963726519326 478.81628820705816 481.90551182911474 528.5350915137851 "></path><path d="M547.0517390181276 315.6574172667943C563.6731243250006 368.20513649262523 505.9967190567995 471.65117942030145 474.4595728542379 516.850091517326C442.92242665167623 562.0490036143505 442.1723682265199 533.0563507873944 395.6734372458321 532.6121953325122C349.17450626514426 532.1680398776301 262.8183967891416 542.4377135053214 251.26470414693682 514.7181453338922C239.71101150473203 486.9985771624629 310.33816688943483 451.6618318806004 340.2157125632494 399.55826810965146C370.09325823706394 347.4547043387025 351.5860845364805 282.10038315893286 394.67692338124675 264.62103923333757C437.767762226013 247.14169530774234 530.4303537112545 263.10969804096345 547.0517390181276 315.6574172667943C563.6731243250006 368.20513649262523 505.9967190567995 471.65117942030145 474.4595728542379 516.850091517326 "></path><path d="M532.3465529092836 324.0916770659938C547.3057996854693 371.3846243692416 495.3970349440883 464.4860630041502 467.0136033617829 505.16508389147225C438.63017177947745 545.8441047787944 437.9551191968367 519.7507172345338 396.1060813142176 519.3509773251399C354.2570434315986 518.951237415746 276.5365449031962 528.1939436806682 266.13822152521186 503.2463323263819C255.73989814722756 478.29872097209557 319.3043379934601 446.4956502184193 346.1941290998932 399.60244282456523C373.0839202063263 352.70923543071115 356.4274638758012 293.8903463689185 395.2092188360908 278.15893683588274C433.99097379638044 262.427527302847 517.3873061330978 276.798729762746 532.3465529092836 324.0916770659938C547.3057996854693 371.3846243692416 495.3970349440883 464.4860630041502 467.0136033617829 505.16508389147225 "></path><path d="M517.6414049474122 332.5259216064042C530.9385131929107 374.5640969870689 484.7973889783498 457.3209313292099 459.56767201630043 493.4800610068295C434.3379550542512 529.6391906844491 433.73790831412606 506.4450684228842 396.5387635295758 506.08974405897857C359.3396187450256 505.7344196950728 290.2547311642235 513.9501585972259 281.0117770504596 491.77450406008256C271.76882293669576 469.5988495229391 328.27054724445804 441.32945329744905 352.17258378350965 399.64660228068993C376.0746203225613 357.96375126393076 361.2688813620946 305.680294320115 395.74155243790756 291.6968191796388C430.2142235137205 277.7133440391626 504.3442967019138 290.4877462257395 517.6414049474122 332.5259216064042C530.9385131929107 374.5640969870689 484.7973889783498 457.3209313292099 459.56767201630043 493.4800610068295 "></path><path d="M502.93618832099 340.96017377620916C514.5711580358012 377.7435772342908 474.19767434806045 450.1558072836641 452.1216720062673 481.79504575158126C430.0456696644742 513.4342842194984 429.52062876686466 493.1394272406292 396.9713770803832 492.8285184222117C364.42212539390175 492.5176096037942 303.9728487606999 499.7063811431781 295.8852639111565 480.30268342317765C287.79767906161317 460.8989857031771 337.23668783090517 436.16326400587343 358.15096980257533 399.69076936620917C379.06525177424555 363.2182747265449 366.11023018383713 317.4702499007061 396.2738173751735 305.23470915278943C426.4374045665099 292.99916840487276 491.30121860617896 304.1767703181275 502.93618832099 340.96017377620916C514.5711580358012 377.7435772342908 474.19767434806045 450.1558072836641 452.1216720062673 481.79504575158126 "></path><path d="M488.2310479885132 349.3944412048032C498.20387917263713 380.9230727403017 463.59803601171643 442.99069849690744 444.67574829017946 470.11004575512214C425.7534605686425 497.2293930133369 425.30342551354863 479.8338013171632 397.40406692513596 479.56730804423387C369.5047083367233 479.30081477130466 317.6910426511217 485.4626189479194 310.7588270657988 468.83087804506187C303.82661148047595 452.19913714220434 346.2029047112976 430.9970899730868 364.1294321155863 399.73495171051746C382.05595951987505 368.47281344794806 370.95165529952504 329.26022074008625 396.80615860638477 318.77261438472914C422.6606619132445 308.28500802937197 478.25821680438946 317.8658096693046 488.2310479885132 349.3944412048032C498.20387917263713 380.9230727403017 463.59803601171643 442.99069849690744 444.67574829017946 470.11004575512214 "></path><path d="M473.5258771384583 357.8286933746081C481.8365697918948 384.10255298752355 452.9983671577943 435.82557445136166 437.22979405651347 458.4250304998739C421.46122095523265 481.02448654838616 421.0861917426545 466.52816013490815 397.83672625231054 466.30608240746704C374.58726076196666 466.084004680026 331.40920602396534 471.21884149387165 325.6323597028629 457.359057408157C319.85551338176055 443.4992733224424 355.169091074112 425.83090068151114 370.1078639110192 399.77911879603664C385.0466367479265 373.7273369105622 375.7930498976348 341.05017632067734 397.3384693200179 332.3105043578797C418.88388874240104 323.5708323950821 465.2151844850218 331.5548337616927 473.5258771384583 357.8286933746081C481.8365697918948 384.10255298752355 452.9983671577943 435.82557445136166 437.22979405651347 458.4250304998739 "></path><path d="M458.8207101031006 366.2629760619912C465.4692642258499 387.28206375232355 442.3987021185694 428.660480923394 429.78384363754475 446.7400457622038C417.16898515652014 464.8196106010136 416.8689617864576 453.2225494702312 398.26938939418244 453.04488728827835C379.6698170019073 452.86722510632546 345.12737321150627 456.97509455740203 340.50589615462434 445.88726728883034C335.8844190977424 434.7994400202586 364.13528125162355 420.6647419075136 376.0862995211494 399.823316399134C388.03731779067516 378.98189089075447 380.6344483104418 352.8401624188466 397.8707838483483 345.8484248486085C415.1071193862548 338.8566872783704 452.1721559803514 345.24388837165884 458.8207101031006 366.2629760619912C465.4692642258499 387.28206375232355 442.3987021185694 428.660480923394 429.78384363754475 446.7400457622038 "></path><path d="M444.11553925304565 374.6972282317961C449.1019548451076 390.46154399954537 431.7990332646473 421.4953568778483 422.33788940387876 435.05503050695563C412.8767455431103 448.614704136063 412.6517280155634 439.9169082879761 398.7020487213571 439.78366165151147C384.7523694271507 439.65041501504686 358.84553658434993 442.73131710335423 355.37942879168844 434.41544665192544C351.913320999027 426.0995762004967 373.10146761443787 415.49855261593797 382.06473131658225 399.86748348465323C391.0279950187266 384.23641435336856 385.47584290855156 364.6301179994377 398.40309456198145 359.3863148217591C411.33034621541134 354.1425116440805 439.1291236609838 358.93291246404686 444.11553925304565 374.6972282317961C449.1019548451076 390.46154399954537 431.7990332646473 421.4953568778483 422.33788940387876 435.05503050695563 "></path><path d="M429.41033979276125 383.1314842162983C432.7346168541359 393.6410280614645 421.19933580049565 414.33023664699977 414.89190655998334 423.37001906640467C408.584477319471 432.40980148580957 408.43446563443973 426.6112709204183 399.13467943830216 426.5224398294419C389.8348932421646 426.43360873846547 372.56367134696404 428.48754346400375 370.2529328185231 422.9436298297179C367.94219429008217 417.39971619543206 382.0676253670227 410.33236713905956 388.04313450178563 399.91165438486973C394.0186436365485 389.49094163067997 390.31720889643185 376.42007739472604 398.9353766653851 372.924208609607C407.55354443433833 369.4283398244879 426.0860627313866 372.62194037113215 429.41033979276125 383.1314842162983C432.7346168541359 393.6410280614645 421.19933580049565 414.33023664699977 414.89190655998334 423.37001906640467 "></path><path d="M414.70516989638065 391.56574306182347C416.36730842706794 396.82051498440654 410.5996679002478 407.1651192771742 407.44595327999167 411.68501048687665C404.2922386597355 416.2049016965791 404.21723281721984 413.30563641388346 399.56733971915105 413.26122086839524C394.9174466210823 413.2168053229071 386.281835673482 414.24377268567616 385.1264664092615 411.47181586853327C383.9710971450411 408.6998590513903 391.03381268351137 405.1661845232041 394.0215672508928 399.9558281461092C397.00932181827426 394.7454717690143 395.1586044482159 388.21003965103733 399.46768833269255 386.4621052584778C403.7767722171692 384.7141708659183 413.0430313656933 386.3109711392404 414.70516989638065 391.56574306182347C416.36730842706794 396.82051498440654 410.5996679002478 407.1651192771742 407.44595327999167 411.68501048687665 "></path></g></svg>