<svg xmlns="http://www.w3.org/2000/svg" xmlns:xlink="http://www.w3.org/1999/xlink" width="500" zoomAndPan="magnify" viewBox="0 0 375 374.999991" height="500" preserveAspectRatio="xMidYMid meet" version="1.0"><defs><g/><clipPath id="d1e04cfc72"><path d="M 96.273438 151.464844 L 274.773438 151.464844 L 274.773438 223.464844 L 96.273438 223.464844 Z M 96.273438 151.464844 " clip-rule="nonzero"/></clipPath><clipPath id="4c1b9f12de"><path d="M 103.34375 158.238281 L 227.09375 158.238281 L 227.09375 216.738281 L 103.34375 216.738281 Z M 103.34375 158.238281 " clip-rule="nonzero"/></clipPath></defs><g clip-path="url(#d1e04cfc72)"><path stroke-linecap="butt" transform="matrix(0.751381, 0, 0, 0.749268, 96.273925, 151.465814)" fill="none" stroke-linejoin="miter" d="M -0.000648244 -0.001295 L 237.561857 -0.001295 L 237.561857 96.092465 L -0.000648244 96.092465 L -0.000648244 -0.001295 " stroke="#000000" stroke-width="6" stroke-opacity="1" stroke-miterlimit="4"/></g><g clip-path="url(#4c1b9f12de)"><path fill="#000000" d="M 103.34375 158.238281 L 227.089844 158.238281 L 227.089844 216.738281 L 103.34375 216.738281 L 103.34375 158.238281 " fill-opacity="1" fill-rule="nonzero"/></g><g fill="#ffffff" fill-opacity="1"><g transform="translate(105.981273, 197.368259)"><g><path d="M 7.613281 0 L 10.082031 0 L 10.082031 -17.300781 L 16.710938 -17.300781 L 16.710938 -19.660156 L 0.953125 -19.660156 L 0.953125 -17.300781 L 7.613281 -17.300781 Z M 7.613281 0 "/></g></g></g><g fill="#ffffff" fill-opacity="1"><g transform="translate(125.80526, 197.368259)"><g><path d="M 2.863281 0 L 5.335938 0 L 5.335938 -7.050781 L 9.660156 -7.050781 L 14.464844 0 L 17.441406 0 L 12.5 -7.304688 C 15.363281 -8.003906 17.132812 -10.167969 17.132812 -13.339844 C 17.132812 -17.246094 14.4375 -19.660156 10.363281 -19.660156 L 2.863281 -19.660156 Z M 5.335938 -9.410156 L 5.335938 -17.300781 L 10.082031 -17.300781 C 12.949219 -17.300781 14.605469 -15.839844 14.605469 -13.339844 C 14.605469 -10.839844 12.949219 -9.410156 10.082031 -9.410156 Z M 5.335938 -9.410156 "/></g></g></g><g fill="#ffffff" fill-opacity="1"><g transform="translate(147.061234, 197.368259)"><g><path d="M 0.476562 0 L 3.117188 0 L 4.914062 -4.464844 L 14.492188 -4.464844 L 16.347656 0 L 18.960938 0 L 10.871094 -19.660156 L 8.566406 -19.660156 Z M 5.871094 -6.769531 L 9.71875 -16.207031 L 13.566406 -6.769531 Z M 5.871094 -6.769531 "/></g></g></g><g fill="#ffffff" fill-opacity="1"><g transform="translate(168.626062, 197.368259)"><g><path d="M 8.3125 0 L 10.617188 0 L 18.425781 -19.660156 L 15.8125 -19.660156 L 12.527344 -11.375 L 9.464844 -3.566406 L 6.375 -11.375 L 3.117188 -19.660156 L 0.476562 -19.660156 Z M 8.3125 0 "/></g></g></g><g fill="#ffffff" fill-opacity="1"><g transform="translate(189.657411, 197.368259)"><g><path d="M 2.863281 0 L 15.109375 0 L 15.109375 -2.304688 L 5.335938 -2.304688 L 5.335938 -8.875 L 14.101562 -8.875 L 14.101562 -11.152344 L 5.335938 -11.152344 L 5.335938 -17.359375 L 14.800781 -17.359375 L 14.800781 -19.660156 L 2.863281 -19.660156 Z M 2.863281 0 "/></g></g></g><g fill="#ffffff" fill-opacity="1"><g transform="translate(208.723301, 197.368259)"><g><path d="M 2.863281 0 L 14.886719 0 L 14.886719 -2.359375 L 5.335938 -2.359375 L 5.335938 -19.660156 L 2.863281 -19.660156 Z M 2.863281 0 "/></g></g></g><g fill="#000000" fill-opacity="1"><g transform="translate(238.945934, 197.006054)"><g><path d="M 0.589844 0 L 7.191406 0 L 10.8125 -5.8125 L 12.441406 -3.203125 L 14.410156 0 L 21.035156 0 L 14.519531 -10.082031 L 20.671875 -19.660156 L 14.351562 -19.660156 L 12.640625 -16.9375 L 10.8125 -13.988281 L 8.960938 -16.9375 L 7.273438 -19.660156 L 0.925781 -19.660156 L 7.105469 -10.027344 Z M 0.589844 0 "/></g></g></g></svg>