<svg width="599" height="353" viewBox="0 0 599 353" fill="none" xmlns="http://www.w3.org/2000/svg">
<g style="mix-blend-mode:multiply" opacity="0.2">
<path d="M471.3 117.024L492.03 106.663C497.538 103.909 497.538 99.4384 492.03 96.6842C486.522 93.9301 477.596 93.9301 472.088 96.6842L373.571 145.931C368.062 148.685 359.137 148.685 353.628 145.931C348.12 143.177 348.12 138.714 353.628 135.96L452.146 86.6897C457.654 83.9356 457.654 79.4728 452.146 76.7186C446.637 73.9645 437.712 73.9645 432.203 76.7186L411.481 87.0798C405.973 89.834 397.039 89.834 391.539 87.0798C386.038 84.3257 377.105 84.3335 371.597 87.0798L131.986 206.912C126.478 209.666 126.478 214.137 131.986 216.891C137.495 219.645 137.495 224.108 131.986 226.862L33.4691 276.133C27.9608 278.887 27.9608 283.35 33.4691 286.104C38.9774 288.858 38.9774 293.321 33.4691 296.075L4.12536 310.751C-1.37512 313.505 -1.37512 317.967 4.12536 320.722C9.62585 323.476 18.5593 323.476 24.0675 320.722L94.0758 285.706C99.5841 282.952 108.51 282.952 114.018 285.706C119.526 288.46 119.526 292.931 114.018 295.685L93.2956 306.046C87.7873 308.8 87.7873 313.271 93.2956 316.025C98.8039 318.779 107.729 318.779 113.23 316.025L211.747 266.754C217.255 264 226.189 264 231.689 266.754C237.19 269.509 237.198 273.971 231.689 276.726L196.424 294.358C190.962 297.112 190.962 301.583 196.424 304.337C201.885 307.091 210.866 307.091 216.366 304.337L251.632 286.697C257.14 283.943 266.065 283.943 271.574 286.697C277.082 289.451 286.008 289.451 291.516 286.697L453.339 205.773C458.848 203.019 458.848 198.548 453.339 195.794C447.831 193.04 447.831 188.577 453.339 185.823L551.857 136.53C557.365 133.775 557.365 129.313 551.857 126.558C546.348 123.804 546.348 119.342 551.857 116.587L581.192 101.912C586.701 99.1575 586.701 94.6947 581.192 91.9406C575.684 89.1864 566.758 89.1864 561.25 91.9406L491.242 126.972C485.734 129.726 476.808 129.726 471.3 126.972C465.791 124.218 465.799 119.755 471.3 117.024ZM145.086 339.985L178.065 323.476C183.574 320.722 183.574 316.259 178.065 313.505C172.557 310.751 163.632 310.751 158.123 313.505L125.144 330.022C119.636 332.776 119.636 337.246 125.144 340.001C130.652 342.755 139.578 342.739 145.086 339.985ZM44.0955 350.596L50.6259 347.335C56.1342 344.58 56.1342 340.11 50.6259 337.356C45.1176 334.602 36.192 334.602 30.6837 337.356L24.1534 340.625C18.6451 343.379 18.6451 347.842 24.1534 350.596C29.6617 353.35 38.5873 353.35 44.0955 350.596ZM508.04 88.6559C513.548 91.41 522.474 91.41 527.982 88.6559L593.871 55.7076C599.379 52.9534 599.379 48.4906 593.871 45.7365C588.363 42.9824 579.437 42.9824 573.929 45.7365L508.04 78.6848C502.532 81.4389 502.532 85.9017 508.04 88.6559ZM474.686 55.4735L468.155 58.7426C462.647 61.4968 462.647 65.9596 468.155 68.7137C473.664 71.4678 482.589 71.4678 488.098 68.7137L494.628 65.4446C500.136 62.6905 500.136 58.2277 494.628 55.4735C489.12 52.7194 480.194 52.7194 474.686 55.4735Z" fill="url(#paint0_linear_322_15208)"/>
</g>
<path d="M272.752 258.047V276.312C272.752 276.584 272.819 276.852 272.947 277.092C273.23 277.588 273.65 277.992 274.157 278.255L294.154 289.763C295.204 290.291 296.364 290.566 297.54 290.566C298.716 290.566 299.875 290.291 300.926 289.763L320.923 278.255C321.306 278.082 321.638 277.812 321.884 277.471C322.131 277.13 322.283 276.731 322.327 276.312V258.047H272.752Z" fill="url(#paint1_linear_322_15208)"/>
<path d="M269.739 246.118V270.726C269.74 271.033 269.815 271.336 269.957 271.608C270.272 272.163 270.741 272.616 271.307 272.911L293.746 285.815C294.921 286.41 296.22 286.72 297.538 286.72C298.855 286.72 300.154 286.41 301.33 285.815L323.768 272.911C324.196 272.713 324.564 272.408 324.838 272.025C325.111 271.642 325.28 271.194 325.329 270.726V246.118H269.739Z" fill="url(#paint2_linear_322_15208)"/>
<g style="mix-blend-mode:screen" filter="url(#filter0_f_322_15208)">
<path d="M280.796 254.186V269.01C280.794 269.195 280.84 269.377 280.928 269.54C281.109 269.869 281.379 270.14 281.708 270.32L295.222 278.122C295.932 278.476 296.714 278.66 297.508 278.66C298.301 278.66 299.084 278.476 299.794 278.122L313.307 270.32C313.566 270.202 313.789 270.018 313.954 269.787C314.12 269.555 314.222 269.285 314.251 269.002V254.178L280.796 254.186Z" fill="url(#paint3_linear_322_15208)"/>
</g>
<path d="M297.54 230.935C298.86 230.909 300.164 231.217 301.332 231.832L323.771 244.737C325.862 245.946 325.862 247.897 323.771 249.106L301.34 261.995C300.163 262.586 298.865 262.893 297.548 262.893C296.231 262.893 294.933 262.586 293.756 261.995L271.317 249.091C269.218 247.881 269.218 245.97 271.317 244.721L293.756 231.817C294.923 231.208 296.225 230.905 297.54 230.935Z" fill="#F4FAFA"/>
<g filter="url(#filter1_i_322_15208)">
<path d="M297.539 237.278C298.334 237.263 299.12 237.448 299.825 237.817L313.338 245.619C314.594 246.344 314.594 247.515 313.338 248.248L299.825 256.05C299.115 256.404 298.332 256.588 297.539 256.588C296.745 256.588 295.963 256.404 295.253 256.05L281.739 248.248C280.476 247.515 280.476 246.344 281.739 245.619L295.253 237.817C295.957 237.448 296.744 237.263 297.539 237.278Z" fill="url(#paint4_linear_322_15208)"/>
</g>
<path d="M272.777 143.169V161.434C272.777 161.706 272.844 161.974 272.973 162.214C273.255 162.71 273.675 163.114 274.182 163.376L294.179 174.884C295.229 175.413 296.389 175.688 297.565 175.688C298.741 175.688 299.9 175.413 300.951 174.884L320.948 163.376C321.331 163.204 321.663 162.934 321.909 162.593C322.156 162.252 322.308 161.852 322.352 161.434V143.169H272.777Z" fill="url(#paint5_linear_322_15208)"/>
<path d="M269.764 131.24V155.848C269.765 156.155 269.84 156.457 269.983 156.729C270.297 157.285 270.766 157.738 271.332 158.032L293.771 170.937C294.947 171.532 296.246 171.842 297.563 171.842C298.881 171.842 300.179 171.532 301.355 170.937L323.794 158.032C324.221 157.835 324.589 157.529 324.863 157.146C325.136 156.763 325.306 156.316 325.354 155.848V131.24H269.764Z" fill="url(#paint6_linear_322_15208)"/>
<g style="mix-blend-mode:screen" filter="url(#filter2_f_322_15208)">
<path d="M280.82 139.307V154.131C280.819 154.316 280.864 154.498 280.953 154.661C281.133 154.99 281.404 155.261 281.733 155.441L295.246 163.243C295.956 163.597 296.739 163.781 297.532 163.781C298.326 163.781 299.108 163.597 299.818 163.243L313.331 155.441C313.59 155.323 313.813 155.139 313.979 154.908C314.145 154.676 314.247 154.406 314.276 154.123V139.299L280.82 139.307Z" fill="url(#paint7_linear_322_15208)"/>
</g>
<path d="M297.565 116.057C298.885 116.03 300.189 116.339 301.357 116.954L323.796 129.859C325.887 131.068 325.887 133.018 323.796 134.228L301.365 147.117C300.188 147.707 298.89 148.015 297.573 148.015C296.256 148.015 294.958 147.707 293.781 147.117L271.342 134.212C269.243 133.003 269.243 131.091 271.342 129.843L293.781 116.938C294.948 116.33 296.25 116.027 297.565 116.057Z" fill="#F4FAFA"/>
<g filter="url(#filter3_i_322_15208)">
<path d="M297.564 122.4C298.359 122.385 299.145 122.57 299.85 122.939L313.363 130.741C314.619 131.466 314.619 132.637 313.363 133.37L299.85 141.172C299.14 141.526 298.357 141.71 297.564 141.71C296.771 141.71 295.988 141.526 295.278 141.172L281.765 133.37C280.501 132.637 280.501 131.466 281.765 130.741L295.278 122.939C295.983 122.57 296.769 122.385 297.564 122.4Z" fill="url(#paint8_linear_322_15208)"/>
</g>
<path d="M387.231 113.475C393.551 108.341 403.928 104.986 415.67 104.986C427.412 104.986 437.789 108.341 444.109 113.475H450.561V151.759C450.561 162.885 434.957 171.904 415.67 171.904C396.383 171.904 380.787 162.885 380.787 151.759V113.475H387.231Z" fill="url(#paint9_linear_322_15208)"/>
<path d="M383.262 98.8143C390.464 92.9705 402.284 89.1553 415.657 89.1553C429.029 89.1553 440.85 92.9705 448.051 98.8143H455.393V142.42C455.393 155.091 437.604 165.366 415.657 165.366C393.709 165.366 375.928 155.091 375.928 142.42V98.8143H383.262Z" fill="url(#paint10_linear_322_15208)"/>
<path style="mix-blend-mode:screen" d="M415.672 165.358C437.618 165.358 455.409 155.089 455.409 142.42C455.409 129.752 437.618 119.482 415.672 119.482C393.727 119.482 375.936 129.752 375.936 142.42C375.936 155.089 393.727 165.358 415.672 165.358Z" fill="url(#paint11_linear_322_15208)"/>
<path style="mix-blend-mode:screen" d="M415.672 150.823C437.618 150.823 455.409 140.553 455.409 127.885C455.409 115.217 437.618 104.947 415.672 104.947C393.727 104.947 375.936 115.217 375.936 127.885C375.936 140.553 393.727 150.823 415.672 150.823Z" fill="url(#paint12_linear_322_15208)"/>
<path style="mix-blend-mode:screen" d="M415.672 136.287C437.618 136.287 455.409 126.018 455.409 113.349C455.409 100.681 437.618 90.4111 415.672 90.4111C393.727 90.4111 375.936 100.681 375.936 113.349C375.936 126.018 393.727 136.287 415.672 136.287Z" fill="url(#paint13_linear_322_15208)"/>
<g style="mix-blend-mode:multiply">
<path d="M383.262 98.8143C390.464 92.9705 402.284 89.1553 415.657 89.1553C429.029 89.1553 440.85 92.9705 448.051 98.8143H455.393V142.42C455.393 155.091 437.604 165.366 415.657 165.366C393.709 165.366 375.928 155.091 375.928 142.42V98.8143H383.262Z" fill="url(#paint14_linear_322_15208)"/>
</g>
<g style="mix-blend-mode:screen" filter="url(#filter4_f_322_15208)">
<path d="M439.959 97.7378V136.53C439.959 144.27 429.083 150.574 415.671 150.574C402.259 150.574 391.383 144.293 391.383 136.53V97.7378H439.959Z" fill="url(#paint15_linear_322_15208)"/>
</g>
<path style="mix-blend-mode:screen" d="M415.672 121.752C437.618 121.752 455.408 111.483 455.408 98.8142C455.408 86.1458 437.618 75.876 415.672 75.876C393.727 75.876 375.936 86.1458 375.936 98.8142C375.936 111.483 393.727 121.752 415.672 121.752Z" fill="url(#paint16_linear_322_15208)"/>
<path d="M415.672 121.752C437.618 121.752 455.408 111.483 455.408 98.8142C455.408 86.1458 437.618 75.876 415.672 75.876C393.727 75.876 375.936 86.1458 375.936 98.8142C375.936 111.483 393.727 121.752 415.672 121.752Z" fill="#F4FAFA"/>
<path d="M415.671 112.834C429.085 112.834 439.959 106.557 439.959 98.8138C439.959 91.0706 429.085 84.7935 415.671 84.7935C402.257 84.7935 391.383 91.0706 391.383 98.8138C391.383 106.557 402.257 112.834 415.671 112.834Z" fill="url(#paint17_linear_322_15208)"/>
<g filter="url(#filter5_d_322_15208)">
<path d="M415.671 109.074C429.085 109.074 439.959 102.797 439.959 95.0536C439.959 87.3103 429.085 81.0332 415.671 81.0332C402.257 81.0332 391.383 87.3103 391.383 95.0536C391.383 102.797 402.257 109.074 415.671 109.074Z" fill="url(#paint18_linear_322_15208)"/>
</g>
<path d="M387.233 234.766C393.553 229.632 403.93 226.277 415.672 226.277C427.414 226.277 437.791 229.632 444.111 234.766H450.563V273.067C450.563 284.192 434.959 293.212 415.672 293.212C396.385 293.212 380.789 284.177 380.789 273.067V234.766H387.233Z" fill="url(#paint19_linear_322_15208)"/>
<path d="M383.262 220.106C390.464 214.262 402.284 210.447 415.657 210.447C429.029 210.447 440.85 214.262 448.051 220.106H455.393V263.704C455.393 276.375 437.604 286.65 415.657 286.65C393.709 286.65 375.944 276.382 375.944 263.704V220.106H383.262Z" fill="url(#paint20_linear_322_15208)"/>
<path style="mix-blend-mode:screen" d="M415.672 286.65C437.618 286.65 455.408 276.38 455.408 263.712C455.408 251.043 437.618 240.773 415.672 240.773C393.726 240.773 375.936 251.043 375.936 263.712C375.936 276.38 393.726 286.65 415.672 286.65Z" fill="url(#paint21_linear_322_15208)"/>
<path style="mix-blend-mode:screen" d="M415.672 272.115C437.618 272.115 455.408 261.845 455.408 249.176C455.408 236.508 437.618 226.238 415.672 226.238C393.726 226.238 375.936 236.508 375.936 249.176C375.936 261.845 393.726 272.115 415.672 272.115Z" fill="url(#paint22_linear_322_15208)"/>
<path style="mix-blend-mode:screen" d="M415.672 257.58C437.618 257.58 455.408 247.31 455.408 234.641C455.408 221.973 437.618 211.703 415.672 211.703C393.726 211.703 375.936 221.973 375.936 234.641C375.936 247.31 393.726 257.58 415.672 257.58Z" fill="url(#paint23_linear_322_15208)"/>
<g style="mix-blend-mode:multiply">
<path d="M383.262 220.106C390.464 214.262 402.284 210.447 415.657 210.447C429.029 210.447 440.85 214.262 448.051 220.106H455.393V263.704C455.393 276.375 437.604 286.65 415.657 286.65C393.709 286.65 375.944 276.382 375.944 263.704V220.106H383.262Z" fill="url(#paint24_linear_322_15208)"/>
</g>
<g style="mix-blend-mode:screen" filter="url(#filter6_f_322_15208)">
<path d="M439.959 219.029V257.821C439.959 265.561 429.083 271.865 415.671 271.865C402.259 271.865 391.383 265.584 391.383 257.821V219.029H439.959Z" fill="url(#paint25_linear_322_15208)"/>
</g>
<path style="mix-blend-mode:screen" d="M415.672 243.044C437.618 243.044 455.408 232.775 455.408 220.106C455.408 207.438 437.618 197.168 415.672 197.168C393.726 197.168 375.936 207.438 375.936 220.106C375.936 232.775 393.726 243.044 415.672 243.044Z" fill="url(#paint26_linear_322_15208)"/>
<path d="M415.672 243.044C437.618 243.044 455.408 232.775 455.408 220.106C455.408 207.438 437.618 197.168 415.672 197.168C393.726 197.168 375.936 207.438 375.936 220.106C375.936 232.775 393.726 243.044 415.672 243.044Z" fill="#F4FAFA"/>
<path d="M415.671 234.126C429.085 234.126 439.959 227.849 439.959 220.106C439.959 212.363 429.085 206.085 415.671 206.085C402.257 206.085 391.383 212.363 391.383 220.106C391.383 227.849 402.257 234.126 415.671 234.126Z" fill="url(#paint27_linear_322_15208)"/>
<g filter="url(#filter7_d_322_15208)">
<path d="M415.671 230.366C429.085 230.366 439.959 224.089 439.959 216.346C439.959 208.602 429.085 202.325 415.671 202.325C402.257 202.325 391.383 208.602 391.383 216.346C391.383 224.089 402.257 230.366 415.671 230.366Z" fill="url(#paint28_linear_322_15208)"/>
</g>
<path d="M209.024 113.475C202.696 108.341 192.32 104.986 180.577 104.986C168.835 104.986 158.458 108.341 152.139 113.475H145.694V151.759C145.694 162.885 161.298 171.904 180.577 171.904C199.856 171.904 215.468 162.885 215.468 151.759V113.475H209.024Z" fill="url(#paint29_linear_322_15208)"/>
<path d="M212.972 98.8143C205.771 92.9705 193.951 89.1553 180.578 89.1553C167.205 89.1553 155.393 92.9705 148.191 98.8143H140.849V142.42C140.849 155.091 158.638 165.366 180.578 165.366C202.517 165.366 220.314 155.091 220.314 142.42V98.8143H212.972Z" fill="url(#paint30_linear_322_15208)"/>
<path style="mix-blend-mode:screen" d="M180.578 165.358C202.523 165.358 220.314 155.088 220.314 142.42C220.314 129.751 202.523 119.481 180.578 119.481C158.632 119.481 140.841 129.751 140.841 142.42C140.841 155.088 158.632 165.358 180.578 165.358Z" fill="url(#paint31_linear_322_15208)"/>
<path style="mix-blend-mode:screen" d="M180.578 150.823C202.523 150.823 220.314 140.553 220.314 127.885C220.314 115.217 202.523 104.947 180.578 104.947C158.632 104.947 140.841 115.217 140.841 127.885C140.841 140.553 158.632 150.823 180.578 150.823Z" fill="url(#paint32_linear_322_15208)"/>
<path style="mix-blend-mode:screen" d="M180.578 136.287C202.523 136.287 220.314 126.018 220.314 113.349C220.314 100.681 202.523 90.4111 180.578 90.4111C158.632 90.4111 140.841 100.681 140.841 113.349C140.841 126.018 158.632 136.287 180.578 136.287Z" fill="url(#paint33_linear_322_15208)"/>
<g style="mix-blend-mode:multiply">
<path d="M212.972 98.8143C205.771 92.9705 193.951 89.1553 180.578 89.1553C167.205 89.1553 155.393 92.9705 148.191 98.8143H140.849V142.42C140.849 155.091 158.638 165.366 180.578 165.366C202.517 165.366 220.314 155.091 220.314 142.42V98.8143H212.972Z" fill="url(#paint34_linear_322_15208)"/>
</g>
<g style="mix-blend-mode:screen" filter="url(#filter8_f_322_15208)">
<path d="M156.291 97.7378V136.53C156.291 144.27 167.167 150.574 180.579 150.574C193.991 150.574 204.867 144.293 204.867 136.53V97.7378H156.291Z" fill="url(#paint35_linear_322_15208)"/>
</g>
<path style="mix-blend-mode:screen" d="M180.578 121.752C202.523 121.752 220.314 111.483 220.314 98.8142C220.314 86.1458 202.523 75.876 180.578 75.876C158.632 75.876 140.841 86.1458 140.841 98.8142C140.841 111.483 158.632 121.752 180.578 121.752Z" fill="url(#paint36_linear_322_15208)"/>
<path d="M180.578 121.752C202.523 121.752 220.314 111.483 220.314 98.8142C220.314 86.1458 202.523 75.876 180.578 75.876C158.632 75.876 140.841 86.1458 140.841 98.8142C140.841 111.483 158.632 121.752 180.578 121.752Z" fill="#F4FAFA"/>
<path d="M180.579 112.834C193.993 112.834 204.867 106.557 204.867 98.8138C204.867 91.0706 193.993 84.7935 180.579 84.7935C167.165 84.7935 156.291 91.0706 156.291 98.8138C156.291 106.557 167.165 112.834 180.579 112.834Z" fill="url(#paint37_linear_322_15208)"/>
<g filter="url(#filter9_d_322_15208)">
<path d="M180.579 109.074C193.993 109.074 204.867 102.797 204.867 95.0536C204.867 87.3103 193.993 81.0332 180.579 81.0332C167.165 81.0332 156.291 87.3103 156.291 95.0536C156.291 102.797 167.165 109.074 180.579 109.074Z" fill="url(#paint38_linear_322_15208)"/>
</g>
<path d="M209.024 234.766C202.696 229.632 192.32 226.277 180.577 226.277C168.835 226.277 158.458 229.632 152.139 234.766H145.694V273.067C145.694 284.192 161.298 293.212 180.577 293.212C199.856 293.212 215.468 284.192 215.468 273.067V234.766H209.024Z" fill="url(#paint39_linear_322_15208)"/>
<path d="M212.972 220.106C205.771 214.262 193.951 210.447 180.578 210.447C167.205 210.447 155.393 214.262 148.191 220.106H140.849V263.704C140.849 276.375 158.638 286.65 180.578 286.65C202.517 286.65 220.314 276.375 220.314 263.704V220.106H212.972Z" fill="#23ADF3"/>
<path style="mix-blend-mode:screen" d="M180.578 286.65C202.523 286.65 220.314 276.38 220.314 263.712C220.314 251.043 202.523 240.773 180.578 240.773C158.632 240.773 140.841 251.043 140.841 263.712C140.841 276.38 158.632 286.65 180.578 286.65Z" fill="url(#paint40_linear_322_15208)"/>
<path style="mix-blend-mode:screen" d="M180.578 272.115C202.523 272.115 220.314 261.845 220.314 249.176C220.314 236.508 202.523 226.238 180.578 226.238C158.632 226.238 140.841 236.508 140.841 249.176C140.841 261.845 158.632 272.115 180.578 272.115Z" fill="url(#paint41_linear_322_15208)"/>
<path style="mix-blend-mode:screen" d="M180.578 257.579C202.523 257.579 220.314 247.309 220.314 234.641C220.314 221.972 202.523 211.703 180.578 211.703C158.632 211.703 140.841 221.972 140.841 234.641C140.841 247.309 158.632 257.579 180.578 257.579Z" fill="url(#paint42_linear_322_15208)"/>
<g style="mix-blend-mode:multiply">
<path d="M212.972 220.106C205.771 214.262 193.951 210.447 180.578 210.447C167.205 210.447 155.393 214.262 148.191 220.106H140.849V263.704C140.849 276.375 158.638 286.65 180.578 286.65C202.517 286.65 220.314 276.375 220.314 263.704V220.106H212.972Z" fill="url(#paint43_linear_322_15208)"/>
</g>
<g style="mix-blend-mode:screen" filter="url(#filter10_f_322_15208)">
<path d="M156.291 219.029V257.821C156.291 265.561 167.167 271.865 180.579 271.865C193.991 271.865 204.867 265.584 204.867 257.821V219.029H156.291Z" fill="url(#paint44_linear_322_15208)"/>
</g>
<path style="mix-blend-mode:screen" d="M180.578 243.044C202.523 243.044 220.314 232.775 220.314 220.106C220.314 207.438 202.523 197.168 180.578 197.168C158.632 197.168 140.841 207.438 140.841 220.106C140.841 232.775 158.632 243.044 180.578 243.044Z" fill="url(#paint45_linear_322_15208)"/>
<path d="M180.578 243.044C202.523 243.044 220.314 232.775 220.314 220.106C220.314 207.438 202.523 197.168 180.578 197.168C158.632 197.168 140.841 207.438 140.841 220.106C140.841 232.775 158.632 243.044 180.578 243.044Z" fill="#F4FAFA"/>
<path d="M180.579 234.126C193.993 234.126 204.867 227.849 204.867 220.106C204.867 212.363 193.993 206.085 180.579 206.085C167.165 206.085 156.291 212.363 156.291 220.106C156.291 227.849 167.165 234.126 180.579 234.126Z" fill="url(#paint46_linear_322_15208)"/>
<g filter="url(#filter11_d_322_15208)">
<path d="M180.579 230.366C193.993 230.366 204.867 224.089 204.867 216.346C204.867 208.602 193.993 202.325 180.579 202.325C167.165 202.325 156.291 208.602 156.291 216.346C156.291 224.089 167.165 230.366 180.579 230.366Z" fill="url(#paint47_linear_322_15208)"/>
</g>
<path fill-rule="evenodd" clip-rule="evenodd" d="M95.7981 188.728V207.008C95.8007 207.281 95.8703 207.549 96.0009 207.789C96.2815 208.285 96.6984 208.691 97.2025 208.959L117.223 220.467C118.272 221 119.432 221.278 120.609 221.278C121.786 221.278 122.946 221 123.995 220.467L144.015 208.959C144.398 208.784 144.729 208.512 144.976 208.17C145.222 207.828 145.375 207.427 145.419 207.008V188.728H95.7981Z" fill="url(#paint48_linear_322_15208)"/>
<path d="M92.7887 176.783V201.391C92.7896 201.698 92.8646 202.001 93.0072 202.273C93.3263 202.829 93.7971 203.284 94.3647 203.583L116.811 216.496C117.99 217.091 119.291 217.401 120.611 217.401C121.931 217.401 123.232 217.091 124.411 216.496L146.865 203.583C147.292 203.384 147.661 203.077 147.934 202.693C148.208 202.309 148.377 201.86 148.425 201.391V176.783H92.7887Z" fill="url(#paint49_linear_322_15208)"/>
<g style="mix-blend-mode:screen" filter="url(#filter12_f_322_15208)">
<path d="M103.889 184.858V199.682C103.892 199.867 103.937 200.048 104.022 200.212C104.204 200.541 104.474 200.811 104.802 200.993L118.323 208.795C119.032 209.154 119.815 209.341 120.609 209.341C121.404 209.341 122.187 209.154 122.895 208.795L136.424 200.993C136.683 200.874 136.906 200.69 137.072 200.459C137.237 200.228 137.339 199.957 137.368 199.674V184.85L103.889 184.858Z" fill="url(#paint50_linear_322_15208)"/>
</g>
<path style="mix-blend-mode:screen" d="M120.609 185.388C121.932 185.363 123.239 185.674 124.409 186.293L146.863 199.213C148.962 200.415 148.962 202.373 146.863 203.583L124.409 216.495C123.231 217.09 121.929 217.4 120.609 217.4C119.289 217.4 117.988 217.09 116.81 216.495L94.3629 203.583C92.2563 202.373 92.2563 200.415 94.3629 199.213L116.81 186.293C117.979 185.674 119.286 185.363 120.609 185.388Z" fill="url(#paint51_linear_322_15208)"/>
<path style="mix-blend-mode:screen" d="M120.609 177.469C121.931 177.441 123.239 177.75 124.409 178.366L146.863 191.287C148.962 192.488 148.962 194.446 146.863 195.656L124.409 208.568C123.231 209.163 121.929 209.473 120.609 209.473C119.289 209.473 117.988 209.163 116.81 208.568L94.3629 195.656C92.2563 194.446 92.2563 192.488 94.3629 191.287L116.81 178.366C117.98 177.75 119.287 177.441 120.609 177.469Z" fill="url(#paint52_linear_322_15208)"/>
<path style="mix-blend-mode:screen" d="M120.609 169.542C121.932 169.514 123.241 169.825 124.409 170.447L146.863 183.344C148.962 184.554 148.962 186.504 146.863 187.713L124.409 200.642C123.231 201.237 121.929 201.547 120.609 201.547C119.289 201.547 117.988 201.237 116.81 200.642L94.3629 187.729C92.2563 186.52 92.2563 184.569 94.3629 183.36L116.81 170.447C117.978 169.826 119.286 169.515 120.609 169.542Z" fill="url(#paint53_linear_322_15208)"/>
<path style="mix-blend-mode:screen" d="M120.609 161.615C121.932 161.59 123.239 161.901 124.409 162.52L146.863 175.433C148.962 176.642 148.962 178.6 146.863 179.81L124.409 192.707C123.231 193.302 121.929 193.612 120.609 193.612C119.289 193.612 117.988 193.302 116.81 192.707L94.3629 179.794C92.2563 178.585 92.2563 176.627 94.3629 175.417L116.81 162.505C117.98 161.891 119.288 161.585 120.609 161.615Z" fill="url(#paint54_linear_322_15208)"/>
<g style="mix-blend-mode:multiply">
<path d="M92.7887 176.783V201.391C92.7896 201.698 92.8646 202.001 93.0072 202.273C93.3263 202.829 93.7971 203.284 94.3647 203.583L116.811 216.496C117.99 217.091 119.291 217.401 120.611 217.401C121.931 217.401 123.232 217.091 124.411 216.496L146.865 203.583C147.292 203.384 147.661 203.077 147.934 202.693C148.208 202.309 148.377 201.86 148.425 201.391V176.783H92.7887Z" fill="url(#paint55_linear_322_15208)"/>
</g>
<path d="M120.609 161.569C121.932 161.543 123.239 161.855 124.409 162.474L146.863 175.394C148.962 176.596 148.962 178.554 146.863 179.763L124.409 192.707C123.231 193.302 121.929 193.612 120.609 193.612C119.289 193.612 117.988 193.302 116.81 192.707L94.3629 179.795C92.2563 178.585 92.2563 176.627 94.3629 175.425L116.81 162.505C117.976 161.875 119.284 161.553 120.609 161.569Z" fill="#F4FAFA"/>
<path d="M120.608 167.935C121.404 167.92 122.191 168.108 122.894 168.482L136.423 176.284C137.687 177.009 137.687 178.187 136.423 178.913L122.894 186.715C122.185 187.074 121.402 187.261 120.608 187.261C119.813 187.261 119.03 187.074 118.322 186.715L104.801 178.913C103.537 178.187 103.537 177.009 104.801 176.284L118.322 168.482C119.025 168.108 119.812 167.92 120.608 167.935Z" fill="url(#paint56_linear_322_15208)"/>
<g filter="url(#filter13_d_322_15208)">
<path d="M120.608 165.595C121.404 165.579 122.191 165.767 122.894 166.141L136.423 173.943C137.687 174.668 137.687 175.847 136.423 176.572L122.894 184.374C122.185 184.733 121.402 184.921 120.608 184.921C119.813 184.921 119.03 184.733 118.322 184.374L104.801 176.572C103.537 175.847 103.537 174.668 104.801 173.943L118.322 166.141C119.025 165.767 119.812 165.579 120.608 165.595Z" fill="url(#paint57_linear_322_15208)"/>
</g>
<path fill-rule="evenodd" clip-rule="evenodd" d="M216.078 192.861V204.229C216.078 204.398 216.121 204.564 216.203 204.712C216.385 205.027 216.656 205.279 216.983 205.438L229.466 212.592C230.119 212.926 230.841 213.1 231.573 213.1C232.305 213.1 233.027 212.926 233.68 212.592L246.163 205.438C246.401 205.329 246.606 205.16 246.759 204.948C246.912 204.736 247.008 204.488 247.037 204.229V192.861H216.078Z" fill="url(#paint58_linear_322_15208)"/>
<path d="M214.221 185.441V200.733C214.222 200.923 214.268 201.11 214.354 201.279C214.558 201.611 214.849 201.881 215.196 202.059L229.154 210.088C229.888 210.457 230.697 210.649 231.518 210.649C232.339 210.649 233.149 210.457 233.882 210.088L247.84 202.059C248.106 201.935 248.336 201.744 248.507 201.505C248.678 201.265 248.784 200.986 248.815 200.694V185.402L214.221 185.441Z" fill="url(#paint59_linear_322_15208)"/>
<g style="mix-blend-mode:screen" filter="url(#filter14_f_322_15208)">
<path d="M221.096 190.458V199.672C221.098 199.786 221.127 199.899 221.182 199.999C221.302 200.208 221.477 200.378 221.689 200.491L230.123 205.328C230.564 205.549 231.05 205.663 231.543 205.663C232.036 205.663 232.522 205.549 232.963 205.328L241.374 200.491C241.53 200.421 241.665 200.313 241.767 200.177C241.87 200.04 241.936 199.88 241.959 199.711V190.458H221.096Z" fill="url(#paint60_linear_322_15208)"/>
</g>
<path style="mix-blend-mode:screen" d="M231.518 190.77C232.333 190.758 233.138 190.951 233.859 191.331L247.84 199.352C249.143 200.132 249.143 201.318 247.84 202.075L233.882 210.127C233.149 210.496 232.339 210.688 231.518 210.688C230.697 210.688 229.888 210.496 229.154 210.127L215.196 202.098C213.893 201.318 213.893 200.124 215.196 199.375L229.154 191.347C229.881 190.957 230.694 190.758 231.518 190.77Z" fill="url(#paint61_linear_322_15208)"/>
<path style="mix-blend-mode:screen" d="M231.518 185.862C232.333 185.85 233.138 186.043 233.859 186.424L247.817 194.452C249.12 195.233 249.12 196.418 247.817 197.167L233.882 205.196C233.149 205.565 232.339 205.757 231.518 205.757C230.697 205.757 229.888 205.565 229.154 205.196L215.196 197.167C213.893 196.387 213.893 195.201 215.196 194.452L229.154 186.424C229.882 186.04 230.695 185.846 231.518 185.862Z" fill="url(#paint62_linear_322_15208)"/>
<path style="mix-blend-mode:screen" d="M231.518 180.932C232.333 180.92 233.138 181.113 233.859 181.493L247.817 189.522C249.12 190.302 249.12 191.488 247.817 192.245L233.882 200.273C233.149 200.642 232.339 200.834 231.518 200.834C230.697 200.834 229.888 200.642 229.154 200.273L215.196 192.245C213.893 191.464 213.893 190.278 215.196 189.522L229.154 181.493C229.882 181.109 230.695 180.916 231.518 180.932Z" fill="url(#paint63_linear_322_15208)"/>
<path style="mix-blend-mode:screen" d="M231.518 176.008C232.333 175.996 233.138 176.189 233.859 176.57L247.817 184.598C249.12 185.379 249.12 186.564 247.817 187.313L233.882 195.342C233.149 195.711 232.339 195.903 231.518 195.903C230.697 195.903 229.888 195.711 229.154 195.342L215.196 187.313C213.893 186.533 213.893 185.347 215.196 184.598L229.154 176.57C229.882 176.186 230.695 175.992 231.518 176.008Z" fill="url(#paint64_linear_322_15208)"/>
<g style="mix-blend-mode:multiply">
<path d="M214.221 185.441V200.733C214.222 200.923 214.268 201.11 214.354 201.279C214.558 201.611 214.849 201.881 215.196 202.059L229.154 210.088C229.888 210.457 230.697 210.649 231.518 210.649C232.339 210.649 233.149 210.457 233.882 210.088L247.84 202.059C248.106 201.935 248.336 201.744 248.507 201.505C248.678 201.265 248.784 200.986 248.815 200.694V185.402L214.221 185.441Z" fill="url(#paint65_linear_322_15208)"/>
</g>
<path d="M231.518 175.946C232.333 175.934 233.138 176.127 233.859 176.508L247.817 184.536C249.12 185.316 249.12 186.502 247.817 187.259L233.882 195.318C233.149 195.688 232.339 195.88 231.518 195.88C230.697 195.88 229.888 195.688 229.154 195.318L215.196 187.29C213.893 186.51 213.893 185.316 215.196 184.567L229.154 176.539C229.879 176.144 230.693 175.94 231.518 175.946Z" fill="#F4FAFA"/>
<path d="M231.517 179.933C232.012 179.924 232.501 180.042 232.937 180.276L241.348 185.113C242.128 185.558 242.128 186.291 241.348 186.744L232.937 191.55C232.501 191.771 232.018 191.886 231.529 191.886C231.04 191.886 230.557 191.771 230.121 191.55L221.71 186.713C220.93 186.26 220.93 185.527 221.71 185.082L230.121 180.276C230.55 180.046 231.03 179.928 231.517 179.933Z" fill="url(#paint66_linear_322_15208)"/>
<g filter="url(#filter15_d_322_15208)">
<path d="M231.517 178.481C232.012 178.47 232.501 178.585 232.937 178.817L241.348 183.654C241.519 183.713 241.667 183.823 241.772 183.97C241.877 184.117 241.933 184.293 241.933 184.473C241.933 184.654 241.877 184.83 241.772 184.977C241.667 185.123 241.519 185.234 241.348 185.292L232.937 190.13C232.497 190.35 232.01 190.465 231.517 190.465C231.025 190.465 230.538 190.35 230.098 190.13L221.687 185.308C221.516 185.25 221.368 185.139 221.263 184.992C221.158 184.845 221.102 184.669 221.102 184.489C221.102 184.308 221.158 184.132 221.263 183.985C221.368 183.839 221.516 183.728 221.687 183.67L230.121 178.817C230.551 178.589 231.031 178.474 231.517 178.481Z" fill="url(#paint67_linear_322_15208)"/>
</g>
<path fill-rule="evenodd" clip-rule="evenodd" d="M517.754 198.868V217.148C517.754 217.421 517.687 217.689 517.559 217.929C517.275 218.426 516.855 218.831 516.35 219.099L496.337 230.607C495.287 231.14 494.125 231.418 492.947 231.418C491.769 231.418 490.608 231.14 489.557 230.607L469.545 219.099C469.161 218.924 468.83 218.652 468.584 218.31C468.338 217.968 468.185 217.568 468.14 217.148V198.868H517.754Z" fill="url(#paint68_linear_322_15208)"/>
<path d="M520.773 186.924V211.532C520.772 211.839 520.697 212.141 520.554 212.413C520.233 212.968 519.763 213.422 519.197 213.724L496.742 226.637C495.566 227.232 494.265 227.542 492.947 227.542C491.628 227.542 490.328 227.232 489.151 226.637L466.696 213.724C466.269 213.525 465.9 213.218 465.626 212.834C465.353 212.45 465.184 212.001 465.136 211.532V186.924H520.773Z" fill="url(#paint69_linear_322_15208)"/>
<g style="mix-blend-mode:screen" filter="url(#filter16_f_322_15208)">
<path d="M509.708 194.999V209.823C509.706 210.007 509.66 210.189 509.575 210.353C509.394 210.681 509.123 210.952 508.795 211.133L495.274 218.935C494.564 219.295 493.78 219.482 492.984 219.482C492.189 219.482 491.404 219.295 490.694 218.935L477.173 211.133C476.915 211.015 476.691 210.831 476.526 210.6C476.36 210.368 476.258 210.098 476.229 209.815V194.991L509.708 194.999Z" fill="#6CE5E6"/>
</g>
<path style="mix-blend-mode:screen" d="M492.951 195.529C491.628 195.503 490.321 195.815 489.151 196.434L466.697 209.354C464.598 210.556 464.598 212.514 466.697 213.723L489.151 226.636C490.328 227.231 491.628 227.541 492.947 227.541C494.266 227.541 495.566 227.231 496.743 226.636L519.197 213.723C521.296 212.514 521.296 210.556 519.197 209.354L496.743 196.434C495.576 195.816 494.271 195.505 492.951 195.529Z" fill="url(#paint70_linear_322_15208)"/>
<path style="mix-blend-mode:screen" d="M492.951 187.61C491.629 187.582 490.321 187.891 489.151 188.507L466.697 201.427C464.598 202.629 464.598 204.587 466.697 205.796L489.151 218.709C490.328 219.304 491.628 219.614 492.947 219.614C494.266 219.614 495.566 219.304 496.743 218.709L519.197 205.796C521.296 204.587 521.296 202.629 519.197 201.427L496.743 188.507C495.575 187.892 494.271 187.583 492.951 187.61Z" fill="url(#paint71_linear_322_15208)"/>
<path style="mix-blend-mode:screen" d="M492.951 179.683C491.628 179.654 490.319 179.965 489.151 180.588L466.697 193.485C464.598 194.694 464.598 196.645 466.697 197.854L489.151 210.767C490.328 211.362 491.628 211.672 492.947 211.672C494.266 211.672 495.566 211.362 496.743 210.767L519.197 197.854C521.296 196.645 521.296 194.694 519.197 193.485L496.743 180.573C495.576 179.956 494.27 179.65 492.951 179.683Z" fill="url(#paint72_linear_322_15208)"/>
<path style="mix-blend-mode:screen" d="M492.951 171.756C491.628 171.731 490.321 172.042 489.151 172.661L466.697 185.574C464.598 186.783 464.598 188.741 466.697 189.951L489.151 202.848C490.328 203.443 491.628 203.753 492.947 203.753C494.266 203.753 495.566 203.443 496.743 202.848L519.197 189.935C521.296 188.726 521.296 186.768 519.197 185.558L496.743 172.646C495.574 172.033 494.27 171.727 492.951 171.756Z" fill="url(#paint73_linear_322_15208)"/>
<g style="mix-blend-mode:multiply">
<path d="M520.773 186.924V211.532C520.772 211.839 520.697 212.141 520.554 212.413C520.233 212.968 519.763 213.422 519.197 213.724L496.742 226.637C495.566 227.232 494.265 227.542 492.947 227.542C491.628 227.542 490.328 227.232 489.151 226.637L466.696 213.724C466.269 213.525 465.9 213.218 465.626 212.834C465.353 212.45 465.184 212.001 465.136 211.532V186.924H520.773Z" fill="url(#paint74_linear_322_15208)"/>
</g>
<path d="M492.951 171.709C491.628 171.684 490.321 171.996 489.151 172.614L466.697 185.535C464.598 186.736 464.598 188.695 466.697 189.904L489.151 202.848C490.328 203.443 491.628 203.753 492.947 203.753C494.266 203.753 495.566 203.443 496.743 202.848L519.197 189.935C521.296 188.726 521.296 186.768 519.197 185.566L496.743 172.646C495.579 172.017 494.274 171.695 492.951 171.709Z" fill="#F4FAFA"/>
<path d="M492.95 178.076C492.151 178.059 491.361 178.247 490.656 178.622L477.135 186.424C475.871 187.15 475.871 188.328 477.135 189.053L490.656 196.855C491.366 197.215 492.15 197.402 492.946 197.402C493.741 197.402 494.526 197.215 495.236 196.855L508.757 189.053C510.021 188.328 510.021 187.15 508.757 186.424L495.236 178.622C494.533 178.248 493.746 178.06 492.95 178.076Z" fill="url(#paint75_linear_322_15208)"/>
<g filter="url(#filter17_d_322_15208)">
<path d="M492.95 175.735C492.151 175.718 491.361 175.906 490.656 176.281L477.135 184.083C475.871 184.809 475.871 185.987 477.135 186.712L490.656 194.515C491.366 194.874 492.15 195.061 492.946 195.061C493.741 195.061 494.526 194.874 495.236 194.515L508.757 186.712C510.021 185.987 510.021 184.809 508.757 184.083L495.236 176.281C494.533 175.908 493.746 175.72 492.95 175.735Z" fill="url(#paint76_linear_322_15208)"/>
</g>
<path fill-rule="evenodd" clip-rule="evenodd" d="M394.952 184.689V196.057C394.952 196.226 394.91 196.393 394.827 196.541C394.646 196.855 394.374 197.108 394.047 197.266L381.634 204.444C380.982 204.778 380.26 204.952 379.527 204.952C378.795 204.952 378.073 204.778 377.421 204.444L364.937 197.29C364.7 197.181 364.494 197.012 364.341 196.8C364.188 196.588 364.092 196.34 364.064 196.081V184.689H394.952Z" fill="url(#paint77_linear_322_15208)"/>
<path d="M396.824 177.27V192.562C396.823 192.752 396.777 192.938 396.691 193.108C396.487 193.44 396.196 193.71 395.849 193.888L381.891 201.916C381.157 202.285 380.348 202.478 379.527 202.478C378.706 202.478 377.896 202.285 377.163 201.916L363.213 193.927C362.946 193.803 362.717 193.611 362.546 193.372C362.375 193.133 362.269 192.854 362.237 192.562V177.27H396.824Z" fill="url(#paint78_linear_322_15208)"/>
<g style="mix-blend-mode:screen" filter="url(#filter18_f_322_15208)">
<path d="M389.942 182.286V191.5C389.943 191.614 389.916 191.727 389.864 191.828C389.745 192.036 389.569 192.207 389.357 192.32L380.946 197.157C380.505 197.377 380.019 197.492 379.526 197.492C379.033 197.492 378.547 197.377 378.106 197.157L369.696 192.32C369.54 192.25 369.405 192.142 369.302 192.005C369.2 191.869 369.134 191.708 369.111 191.539V182.286H389.942Z" fill="#23ADF3"/>
</g>
<path style="mix-blend-mode:screen" d="M379.527 182.598C378.712 182.587 377.907 182.78 377.186 183.16L363.213 191.181C361.91 191.961 361.91 193.147 363.213 193.904L377.171 201.932C377.904 202.301 378.714 202.493 379.535 202.493C380.356 202.493 381.165 202.301 381.899 201.932L395.857 193.904C397.16 193.123 397.16 191.93 395.857 191.181L381.899 183.152C381.168 182.77 380.352 182.58 379.527 182.598Z" fill="url(#paint79_linear_322_15208)"/>
<path style="mix-blend-mode:screen" d="M379.527 177.691C378.712 177.679 377.907 177.872 377.186 178.253L363.213 186.281C361.91 187.061 361.91 188.247 363.213 188.996L377.171 197.025C377.904 197.394 378.714 197.586 379.535 197.586C380.356 197.586 381.165 197.394 381.899 197.025L395.857 188.996C397.16 188.216 397.16 187.03 395.857 186.281L381.899 178.253C381.168 177.868 380.352 177.674 379.527 177.691Z" fill="url(#paint80_linear_322_15208)"/>
<path style="mix-blend-mode:screen" d="M379.527 172.76C378.712 172.748 377.907 172.941 377.186 173.321L363.213 181.35C361.91 182.13 361.91 183.316 363.213 184.073L377.171 192.101C377.904 192.47 378.714 192.663 379.535 192.663C380.356 192.663 381.165 192.47 381.899 192.101L395.857 184.073C397.16 183.293 397.16 182.107 395.857 181.35L381.899 173.321C381.168 172.936 380.352 172.743 379.527 172.76Z" fill="url(#paint81_linear_322_15208)"/>
<path style="mix-blend-mode:screen" d="M379.527 167.836C378.712 167.824 377.907 168.018 377.186 168.398L363.213 176.426C361.91 177.207 361.91 178.393 363.213 179.142L377.171 187.17C377.904 187.539 378.714 187.731 379.535 187.731C380.356 187.731 381.165 187.539 381.899 187.17L395.857 179.142C397.16 178.361 397.16 177.175 395.857 176.426L381.891 168.398C381.163 168.014 380.35 167.821 379.527 167.836Z" fill="url(#paint82_linear_322_15208)"/>
<g style="mix-blend-mode:multiply">
<path d="M396.824 177.27V192.562C396.823 192.752 396.777 192.938 396.691 193.108C396.487 193.44 396.196 193.71 395.849 193.888L381.891 201.916C381.157 202.285 380.348 202.478 379.527 202.478C378.706 202.478 377.896 202.285 377.163 201.916L363.213 193.927C362.946 193.803 362.717 193.611 362.546 193.372C362.375 193.133 362.269 192.854 362.237 192.562V177.27H396.824Z" fill="url(#paint83_linear_322_15208)"/>
</g>
<path d="M379.527 167.774C378.712 167.762 377.907 167.956 377.186 168.336L363.213 176.396C361.91 177.176 361.91 178.362 363.213 179.119L377.171 187.147C377.904 187.516 378.714 187.708 379.535 187.708C380.356 187.708 381.165 187.516 381.899 187.147L395.857 179.119C397.16 178.339 397.16 177.145 395.857 176.396L381.899 168.367C381.171 167.972 380.355 167.767 379.527 167.774Z" fill="#F4FAFA"/>
<path d="M379.526 171.761C379.031 171.752 378.543 171.87 378.106 172.104L369.696 176.941C368.916 177.386 368.916 178.119 369.696 178.572L378.106 183.409C378.546 183.634 379.033 183.751 379.526 183.751C380.02 183.751 380.507 183.634 380.946 183.409L389.357 178.572C390.137 178.119 390.137 177.386 389.357 176.941L380.946 172.104C380.51 171.87 380.021 171.752 379.526 171.761Z" fill="url(#paint84_linear_322_15208)"/>
<g filter="url(#filter19_d_322_15208)">
<path d="M379.526 170.31C379.032 170.299 378.543 170.414 378.106 170.645L369.696 175.483C369.525 175.541 369.377 175.652 369.272 175.798C369.167 175.945 369.111 176.121 369.111 176.302C369.111 176.482 369.167 176.658 369.272 176.805C369.377 176.952 369.525 177.063 369.696 177.121L378.106 181.958C378.547 182.179 379.033 182.294 379.526 182.294C380.019 182.294 380.505 182.179 380.946 181.958L389.357 177.121C389.528 177.063 389.676 176.952 389.781 176.805C389.886 176.658 389.942 176.482 389.942 176.302C389.942 176.121 389.886 175.945 389.781 175.798C389.676 175.652 389.528 175.541 389.357 175.483L380.946 170.645C380.509 170.414 380.021 170.299 379.526 170.31Z" fill="url(#paint85_linear_322_15208)"/>
</g>
<path d="M381.532 175.515C407.77 144.119 441.983 136.406 464.261 142.695C482.316 147.787 493.033 161.827 492.919 180.254L494.149 180.351C494.251 161.478 483.208 147.086 464.594 141.835C441.85 135.421 407.004 143.194 380.429 174.958L381.532 175.515Z" fill="#D99BFF" stroke="#D99BFF" stroke-width="0.761783"/>
<path d="M409.644 153.205C409.566 153.678 409.342 154.115 409.002 154.462C408.661 154.809 408.219 155.05 407.731 155.154C407.243 155.259 406.732 155.222 406.261 155.049C405.79 154.876 405.382 154.574 405.087 154.181C404.793 153.789 404.625 153.323 404.606 152.844C404.587 152.365 404.718 151.893 404.981 151.489C405.244 151.085 405.627 150.766 406.084 150.573C406.54 150.381 407.048 150.323 407.543 150.406C408.205 150.519 408.798 150.876 409.192 151.401C409.585 151.925 409.748 152.574 409.644 153.205Z" fill="#D99BFF" stroke="#D99BFF" stroke-width="0.761783"/>
<path d="M482.05 149.688C481.972 150.161 481.748 150.598 481.408 150.945C481.068 151.292 480.626 151.533 480.138 151.637C479.65 151.742 479.138 151.705 478.667 151.532C478.197 151.358 477.788 151.056 477.494 150.664C477.199 150.271 477.032 149.806 477.013 149.327C476.994 148.848 477.124 148.376 477.387 147.972C477.65 147.568 478.034 147.249 478.49 147.056C478.946 146.864 479.454 146.806 479.949 146.889C480.611 147.001 481.204 147.359 481.598 147.884C481.992 148.408 482.154 149.057 482.05 149.688Z" fill="#D99BFF" stroke="#D99BFF" stroke-width="0.761783"/>
<path d="M493.825 185.379H493.045C493.045 151.221 481.7 122.182 461.922 105.797C448.222 94.4218 431.314 89.92 414.329 93.1111L414.189 92.3309C431.424 89.093 448.565 93.6572 462.445 105.181C482.348 121.76 493.825 150.987 493.825 185.379Z" fill="#D99BFF" stroke="#D99BFF" stroke-width="0.761783"/>
<path d="M484.454 138.129C485.596 138.129 486.522 137.204 486.522 136.062C486.522 134.92 485.596 133.994 484.454 133.994C483.313 133.994 482.387 134.92 482.387 136.062C482.387 137.204 483.313 138.129 484.454 138.129Z" fill="#D99BFF" stroke="#D99BFF" stroke-width="0.761783"/>
<path d="M463.1 108.348C464.242 108.348 465.168 107.423 465.168 106.281C465.168 105.139 464.242 104.213 463.1 104.213C461.958 104.213 461.033 105.139 461.033 106.281C461.033 107.423 461.958 108.348 463.1 108.348Z" fill="#D99BFF" stroke="#D99BFF" stroke-width="0.761783"/>
<path d="M295.21 127.637L295.704 128.036C320.038 97.9503 347.901 78.1763 372.083 73.8633C388.852 70.8529 402.753 75.5371 411.223 87.0371L411.868 86.4217C403.273 74.7528 389.18 70.0038 372.191 73.053C347.791 77.4739 319.711 97.345 295.21 127.637Z" fill="#D99BFF" stroke="#D99BFF" stroke-width="0.761783"/>
<path d="M334.357 90.4567C333.391 89.6756 333.18 88.3357 333.885 87.4639C334.59 86.592 335.945 86.5185 336.91 87.2996C337.876 88.0807 338.087 89.4206 337.382 90.2924C336.677 91.1642 335.323 91.2378 334.357 90.4567Z" fill="#D99BFF" stroke="#D99BFF" stroke-width="0.761783"/>
<path d="M369.082 75.1532C368.118 74.3735 367.996 72.9261 368.809 71.9204C369.623 70.9146 371.063 70.7314 372.027 71.5111C372.991 72.2908 373.113 73.7382 372.3 74.7439C371.487 75.7497 370.046 75.9329 369.082 75.1532Z" fill="#D99BFF" stroke="#D99BFF" stroke-width="0.761783"/>
<path d="M175.016 96.4243L175.655 97.1536C196.162 79.1911 222.885 74.5249 248.916 84.398C266.964 91.2234 283.511 104.661 295.504 122.217L296.087 121.938C283.918 104.124 267.142 90.5004 248.858 83.5852C222.607 73.698 195.663 78.3386 175.016 96.4243Z" fill="#D99BFF" stroke="#D99BFF" stroke-width="0.761783"/>
<path d="M211.016 81.4591C210.081 80.3917 210.169 78.7857 211.212 77.8721C212.255 76.9585 213.858 77.0833 214.793 78.1507C215.728 79.2182 215.641 80.8241 214.598 81.7377C213.555 82.6513 211.951 82.5266 211.016 81.4591Z" fill="#D99BFF" stroke="#D99BFF" stroke-width="0.761783"/>
<path d="M246.21 85.3304C245.275 84.2629 245.359 82.6602 246.397 81.7506C247.436 80.841 249.036 80.969 249.971 82.0364C250.906 83.1039 250.822 84.7066 249.783 85.6162C248.745 86.5258 247.145 86.3978 246.21 85.3304Z" fill="#D99BFF" stroke="#D99BFF" stroke-width="0.761783"/>
<path d="M414.626 215.331L413.846 215.272C417.669 177.176 430.082 153.973 447.894 151.613C463.67 149.522 480.834 163.869 493.794 189.984L493.076 190.241C480.452 164.782 463.178 150.239 448.019 152.211C430.589 154.545 418.418 177.531 414.626 215.331Z" fill="#D99BFF" stroke="#D99BFF" stroke-width="0.761783"/>
<path d="M445.444 151.725C445.444 152.069 445.565 152.406 445.793 152.693C446.02 152.979 446.343 153.203 446.72 153.335C447.098 153.466 447.514 153.501 447.915 153.434C448.316 153.366 448.684 153.2 448.974 152.957C449.263 152.713 449.46 152.403 449.539 152.065C449.619 151.727 449.578 151.376 449.422 151.058C449.265 150.74 449 150.468 448.66 150.276C448.32 150.085 447.921 149.982 447.512 149.982C446.963 149.982 446.437 150.166 446.05 150.493C445.662 150.82 445.444 151.263 445.444 151.725Z" fill="#D99BFF" stroke="#D99BFF" stroke-width="0.761783"/>
<path d="M423.051 171.805C423.051 172.15 423.172 172.487 423.4 172.774C423.627 173.06 423.951 173.284 424.329 173.415C424.707 173.547 425.123 173.581 425.524 173.513C425.926 173.445 426.294 173.279 426.583 173.035C426.872 172.79 427.068 172.479 427.147 172.141C427.226 171.802 427.184 171.452 427.026 171.134C426.868 170.815 426.602 170.544 426.261 170.353C425.92 170.162 425.52 170.061 425.11 170.063C424.839 170.063 424.571 170.108 424.32 170.195C424.07 170.283 423.843 170.411 423.651 170.573C423.46 170.735 423.308 170.927 423.205 171.139C423.102 171.35 423.05 171.576 423.051 171.805Z" fill="#D99BFF" stroke="#D99BFF" stroke-width="0.761783"/>
<path d="M297.858 248.17L297.218 247.725C315.335 221.253 336.611 205.087 358.746 200.975C377.26 197.535 396.009 202.239 414.461 214.941L414.016 215.589C395.743 202.996 377.198 198.346 358.886 201.748C336.962 205.82 315.858 221.869 297.858 248.17Z" fill="#D99BFF" stroke="#D99BFF" stroke-width="0.761783"/>
<path d="M367.983 200.289C367.983 200.698 368.104 201.097 368.331 201.437C368.559 201.777 368.882 202.042 369.259 202.199C369.637 202.355 370.053 202.396 370.454 202.317C370.855 202.237 371.223 202.04 371.513 201.751C371.802 201.462 371.999 201.093 372.078 200.692C372.158 200.291 372.117 199.875 371.961 199.498C371.804 199.12 371.539 198.797 371.199 198.57C370.859 198.342 370.46 198.221 370.051 198.221C369.502 198.221 368.976 198.439 368.589 198.827C368.201 199.214 367.983 199.74 367.983 200.289Z" fill="#D99BFF" stroke="#D99BFF" stroke-width="0.761783"/>
<path d="M318.674 225.06C319.816 225.06 320.742 224.134 320.742 222.992C320.742 221.85 319.816 220.925 318.674 220.925C317.532 220.925 316.606 221.85 316.606 222.992C316.606 224.134 317.532 225.06 318.674 225.06Z" fill="#D99BFF" stroke="#D99BFF" stroke-width="0.761783"/>
<path d="M231.136 186.393L232.216 186.045C212.263 151.985 180.738 139.17 158.274 141.576C139.918 143.549 127.23 155.304 124.331 173.038L125.505 173.142C128.333 155.826 140.657 144.348 158.462 142.437C180.445 140.073 211.43 152.75 231.136 186.393Z" fill="#D99BFF" stroke="#D99BFF" stroke-width="0.761783"/>
<path d="M210.597 161.523C210.596 161.885 210.701 162.238 210.901 162.539C211.101 162.84 211.385 163.075 211.719 163.214C212.052 163.353 212.419 163.39 212.773 163.321C213.128 163.251 213.454 163.078 213.709 162.823C213.965 162.568 214.14 162.243 214.211 161.889C214.282 161.535 214.246 161.167 214.108 160.834C213.97 160.5 213.736 160.214 213.436 160.014C213.136 159.813 212.783 159.706 212.422 159.706C211.939 159.706 211.476 159.897 211.134 160.238C210.792 160.578 210.599 161.041 210.597 161.523Z" fill="#D99BFF" stroke="#D99BFF" stroke-width="0.761783"/>
<path d="M159.397 141.664C159.395 142.025 159.501 142.379 159.701 142.68C159.901 142.981 160.186 143.216 160.52 143.355C160.853 143.494 161.221 143.531 161.575 143.46C161.93 143.39 162.256 143.216 162.511 142.961C162.767 142.705 162.941 142.379 163.011 142.025C163.081 141.67 163.045 141.303 162.906 140.969C162.767 140.635 162.532 140.35 162.231 140.15C161.93 139.95 161.576 139.844 161.214 139.846C160.733 139.848 160.271 140.04 159.931 140.38C159.59 140.721 159.398 141.182 159.397 141.664Z" fill="#D99BFF" stroke="#D99BFF" stroke-width="0.761783"/>
<path d="M121.185 173.048H120.606C120.606 143.166 129.097 117.771 143.902 103.386C154.175 93.3731 166.909 89.4073 179.694 92.2207L179.584 92.8986C166.972 90.1259 154.43 94.0375 144.278 103.921C129.595 118.164 121.185 143.369 121.185 173.048Z" fill="#D99BFF" stroke="#D99BFF" stroke-width="0.761783"/>
<path d="M127.553 131.994C128.4 131.994 129.087 131.19 129.087 130.197C129.087 129.205 128.4 128.401 127.553 128.401C126.706 128.401 126.019 129.205 126.019 130.197C126.019 131.19 126.706 131.994 127.553 131.994Z" fill="#D99BFF" stroke="#D99BFF" stroke-width="0.761783"/>
<path d="M143.392 106.118C144.239 106.118 144.926 105.314 144.926 104.322C144.926 103.33 144.239 102.525 143.392 102.525C142.545 102.525 141.858 103.33 141.858 104.322C141.858 105.314 142.545 106.118 143.392 106.118Z" fill="#D99BFF" stroke="#D99BFF" stroke-width="0.761783"/>
<path d="M178.142 210.494C181.427 186.79 175.544 170.203 162.077 164.971C150.321 160.446 134.151 165.457 119.887 178.081L119.358 177.768C134.035 164.812 150.091 159.899 162.312 164.629C176.104 169.968 182.119 186.733 178.802 210.62L178.142 210.494Z" fill="#D99BFF" stroke="#D99BFF" stroke-width="0.761783"/>
<path d="M154.204 164.71C155.011 164.986 155.903 164.516 156.195 163.662C156.487 162.807 156.07 161.89 155.263 161.614C154.455 161.338 153.564 161.807 153.271 162.662C152.979 163.517 153.396 164.434 154.204 164.71Z" fill="#D99BFF" stroke="#D99BFF" stroke-width="0.761783"/>
<path d="M179.484 185.243C179.484 185.548 179.393 185.847 179.224 186.101C179.054 186.355 178.813 186.553 178.53 186.67C178.248 186.787 177.937 186.817 177.638 186.758C177.338 186.698 177.063 186.551 176.847 186.335C176.631 186.119 176.483 185.844 176.424 185.544C176.364 185.244 176.395 184.934 176.512 184.651C176.629 184.369 176.827 184.128 177.081 183.958C177.335 183.788 177.633 183.698 177.939 183.698C178.142 183.697 178.343 183.736 178.531 183.814C178.719 183.891 178.889 184.005 179.033 184.149C179.177 184.292 179.29 184.463 179.368 184.651C179.445 184.838 179.485 185.04 179.484 185.243Z" fill="#D99BFF" stroke="#D99BFF" stroke-width="0.761783"/>
<path d="M296.002 248.17C277.995 221.869 256.89 205.82 234.966 201.748C216.663 198.346 198.117 203.004 179.844 215.589L179.4 214.941C197.852 202.239 216.592 197.535 235.114 200.975C257.241 205.087 278.525 221.261 296.642 247.725L296.002 248.17Z" fill="#D99BFF" stroke="#D99BFF" stroke-width="0.761783"/>
<path d="M225.876 200.289C225.876 200.698 225.755 201.097 225.528 201.437C225.3 201.777 224.978 202.042 224.6 202.199C224.222 202.355 223.806 202.396 223.405 202.317C223.004 202.237 222.636 202.04 222.347 201.751C222.057 201.462 221.86 201.093 221.781 200.692C221.701 200.291 221.742 199.875 221.898 199.498C222.055 199.12 222.32 198.797 222.66 198.57C223 198.342 223.4 198.221 223.809 198.221C224.357 198.221 224.883 198.439 225.271 198.827C225.658 199.214 225.876 199.74 225.876 200.289Z" fill="#D99BFF" stroke="#D99BFF" stroke-width="0.761783"/>
<path d="M277.246 222.993C277.246 223.402 277.124 223.802 276.897 224.142C276.669 224.483 276.346 224.748 275.967 224.904C275.589 225.06 275.173 225.101 274.772 225.02C274.37 224.94 274.002 224.742 273.713 224.452C273.424 224.162 273.228 223.793 273.149 223.391C273.07 222.99 273.112 222.574 273.27 222.196C273.428 221.819 273.694 221.496 274.035 221.27C274.376 221.044 274.777 220.924 275.186 220.925C275.457 220.925 275.725 220.979 275.976 221.083C276.226 221.187 276.454 221.339 276.645 221.531C276.836 221.723 276.988 221.951 277.091 222.202C277.194 222.453 277.247 222.722 277.246 222.993Z" fill="#D99BFF" stroke="#D99BFF" stroke-width="0.761783"/>
<ellipse cx="179.126" cy="98.6183" rx="7.70607" ry="1.08609" fill="#23ADF3"/>
<path d="M179.18 97.8488C182.922 97.8488 185.955 94.9109 185.955 91.2869C185.955 87.6629 182.922 84.7251 179.18 84.7251C175.438 84.7251 172.405 87.6629 172.405 91.2869C172.405 94.9109 175.438 97.8488 179.18 97.8488Z" fill="#6D63D6" stroke="white" stroke-width="1.01576" stroke-miterlimit="10"/>
<path fill-rule="evenodd" clip-rule="evenodd" d="M175.36 87.8456V88.6192C175.36 88.6891 175.405 88.7514 175.47 88.7746L177.946 89.6473L175.466 90.6033C175.402 90.6278 175.361 90.6889 175.361 90.7571V91.6173C175.361 91.6852 175.402 91.7461 175.465 91.7708L178.015 92.7659L175.469 93.6941C175.404 93.7178 175.36 93.7797 175.36 93.8489V94.5651C175.36 94.6811 175.477 94.7608 175.585 94.7186L179.301 93.2681L183.017 94.7186C183.125 94.7608 183.242 94.6811 183.242 94.5651V93.8489C183.242 93.7797 183.199 93.7178 183.134 93.6941L180.588 92.7659L183.137 91.7708C183.2 91.7461 183.242 91.6852 183.242 91.6173V90.7571C183.242 90.6889 183.2 90.6278 183.136 90.6033L180.657 89.6473L183.132 88.7746C183.198 88.7514 183.242 88.6891 183.242 88.6192V87.8456C183.242 87.7299 183.126 87.6502 183.018 87.6918L179.301 89.1247L175.585 87.6918C175.477 87.6502 175.36 87.7299 175.36 87.8456ZM179.301 90.1252L176.707 91.0399C176.561 91.0913 176.56 91.2972 176.705 91.3501L179.301 92.2967L181.897 91.3501C182.043 91.2972 182.041 91.0913 181.896 91.0399L179.301 90.1252Z" fill="white"/>
<ellipse cx="121.953" cy="178.893" rx="4.4478" ry="1.08609" fill="#23ADF3"/>
<ellipse cx="415.352" cy="221.613" rx="6.05107" ry="1.29296" fill="#23ADF3"/>
<path d="M414.637 221.982C418.379 221.982 421.412 219.044 421.412 215.42C421.412 211.796 418.379 208.858 414.637 208.858C410.895 208.858 407.862 211.796 407.862 215.42C407.862 219.044 410.895 221.982 414.637 221.982Z" fill="#6D63D6" stroke="white" stroke-width="1.01576" stroke-miterlimit="10"/>
<path fill-rule="evenodd" clip-rule="evenodd" d="M410.817 211.978V212.752C410.817 212.822 410.861 212.884 410.927 212.907L413.402 213.78L410.922 214.736C410.859 214.761 410.817 214.822 410.817 214.89V215.75C410.817 215.818 410.859 215.879 410.922 215.904L413.471 216.899L410.925 217.827C410.86 217.851 410.817 217.912 410.817 217.982V218.698C410.817 218.814 410.933 218.894 411.041 218.851L414.758 217.401L418.474 218.851C418.582 218.894 418.698 218.814 418.698 218.698V217.982C418.698 217.912 418.655 217.851 418.59 217.827L416.044 216.899L418.593 215.904C418.657 215.879 418.698 215.818 418.698 215.75V214.89C418.698 214.822 418.656 214.761 418.593 214.736L416.113 213.78L418.588 212.907C418.654 212.884 418.698 212.822 418.698 212.752V211.978C418.698 211.863 418.582 211.783 418.474 211.825L414.758 213.258L411.041 211.825C410.933 211.783 410.817 211.863 410.817 211.978ZM414.758 214.258L412.163 215.173C412.017 215.224 412.016 215.43 412.162 215.483L414.758 216.43L417.354 215.483C417.499 215.43 417.498 215.224 417.352 215.173L414.758 214.258Z" fill="white"/>
<ellipse cx="493.084" cy="189.245" rx="4.34436" ry="1.50846" fill="#23ADF3"/>
<path d="M493.079 188.813C496.072 188.813 498.498 186.463 498.498 183.565C498.498 180.666 496.072 178.317 493.079 178.317C490.087 178.317 487.661 180.666 487.661 183.565C487.661 186.463 490.087 188.813 493.079 188.813Z" fill="#6D63D6" stroke="white" stroke-width="0.812362" stroke-miterlimit="10"/>
<path fill-rule="evenodd" clip-rule="evenodd" d="M490.023 180.813V181.431C490.023 181.487 490.059 181.537 490.111 181.556L492.091 182.254L490.108 183.018C490.057 183.038 490.024 183.087 490.024 183.141V183.829C490.024 183.883 490.057 183.932 490.108 183.952L492.146 184.747L490.11 185.49C490.058 185.509 490.023 185.558 490.023 185.614V186.187C490.023 186.279 490.117 186.343 490.203 186.309L493.175 185.149L496.147 186.309C496.234 186.343 496.327 186.279 496.327 186.187V185.614C496.327 185.558 496.293 185.509 496.241 185.49L494.204 184.747L496.243 183.952C496.293 183.932 496.327 183.883 496.327 183.829V183.141C496.327 183.087 496.293 183.038 496.242 183.018L494.259 182.254L496.239 181.556C496.292 181.537 496.327 181.487 496.327 181.431V180.813C496.327 180.72 496.234 180.656 496.148 180.69L493.175 181.836L490.203 180.69C490.116 180.656 490.023 180.72 490.023 180.813ZM493.175 182.636L491.101 183.367C490.984 183.408 490.983 183.573 491.099 183.615L493.175 184.372L495.251 183.615C495.367 183.573 495.367 183.408 495.25 183.367L493.175 182.636Z" fill="white"/>
<ellipse cx="413.385" cy="99.2466" rx="6.05107" ry="1.29296" fill="#23ADF3"/>
<ellipse cx="179.464" cy="221.013" rx="5.37873" ry="1.31341" fill="#23ADF3"/>
<ellipse cx="380.737" cy="177.174" rx="2.43077" ry="0.827497" fill="#23ADF3"/>
<path d="M414.637 221.982C418.378 221.982 421.412 219.044 421.412 215.42C421.412 211.796 418.378 208.858 414.637 208.858C410.895 208.858 407.861 211.796 407.861 215.42C407.861 219.044 410.895 221.982 414.637 221.982Z" fill="#6D63D6" stroke="white" stroke-width="1.01576" stroke-miterlimit="10"/>
<path fill-rule="evenodd" clip-rule="evenodd" d="M410.817 211.978V212.752C410.817 212.822 410.861 212.884 410.927 212.907L413.402 213.78L410.922 214.736C410.859 214.761 410.817 214.822 410.817 214.89V215.75C410.817 215.818 410.858 215.879 410.921 215.904L413.471 216.899L410.925 217.827C410.86 217.851 410.817 217.912 410.817 217.982V218.698C410.817 218.814 410.933 218.894 411.041 218.851L414.757 217.401L418.473 218.851C418.581 218.894 418.698 218.814 418.698 218.698V217.982C418.698 217.912 418.655 217.851 418.59 217.827L416.044 216.899L418.593 215.904C418.656 215.879 418.698 215.818 418.698 215.75V214.89C418.698 214.822 418.656 214.761 418.592 214.736L416.113 213.78L418.588 212.907C418.654 212.884 418.698 212.822 418.698 212.752V211.978C418.698 211.863 418.582 211.783 418.474 211.825L414.757 213.258L411.041 211.825C410.933 211.783 410.817 211.863 410.817 211.978ZM414.757 214.258L412.163 215.173C412.017 215.224 412.016 215.43 412.161 215.483L414.757 216.43L417.353 215.483C417.499 215.43 417.497 215.224 417.352 215.173L414.757 214.258Z" fill="white"/>
<path d="M179.18 219.026C182.922 219.026 185.955 216.088 185.955 212.464C185.955 208.84 182.922 205.902 179.18 205.902C175.438 205.902 172.405 208.84 172.405 212.464C172.405 216.088 175.438 219.026 179.18 219.026Z" fill="#6D63D6" stroke="white" stroke-width="1.01576" stroke-miterlimit="10"/>
<path fill-rule="evenodd" clip-rule="evenodd" d="M175.36 209.022V209.796C175.36 209.866 175.404 209.928 175.47 209.951L177.945 210.824L175.466 211.78C175.402 211.805 175.36 211.866 175.36 211.934V212.794C175.36 212.862 175.402 212.923 175.465 212.948L178.014 213.943L175.469 214.871C175.404 214.895 175.36 214.956 175.36 215.026V215.742C175.36 215.858 175.477 215.938 175.585 215.895L179.301 214.445L183.017 215.895C183.125 215.938 183.242 215.858 183.242 215.742V215.026C183.242 214.956 183.198 214.895 183.133 214.871L180.588 213.943L183.137 212.948C183.2 212.923 183.242 212.862 183.242 212.794V211.934C183.242 211.866 183.2 211.805 183.136 211.78L180.656 210.824L183.132 209.951C183.198 209.928 183.242 209.866 183.242 209.796V209.022C183.242 208.907 183.126 208.827 183.018 208.869L179.301 210.302L175.584 208.869C175.476 208.827 175.36 208.907 175.36 209.022ZM179.301 211.302L176.707 212.217C176.561 212.268 176.56 212.474 176.705 212.527L179.301 213.473L181.897 212.527C182.042 212.474 182.041 212.268 181.895 212.217L179.301 211.302Z" fill="white"/>
<path d="M413.651 97.8492C417.393 97.8492 420.426 94.9114 420.426 91.2874C420.426 87.6634 417.393 84.7256 413.651 84.7256C409.909 84.7256 406.876 87.6634 406.876 91.2874C406.876 94.9114 409.909 97.8492 413.651 97.8492Z" fill="#6D63D6" stroke="white" stroke-width="1.01576" stroke-miterlimit="10"/>
<path fill-rule="evenodd" clip-rule="evenodd" d="M409.832 87.8461V88.6197C409.832 88.6896 409.876 88.7519 409.942 88.7751L412.417 89.6478L409.937 90.6038C409.874 90.6283 409.832 90.6894 409.832 90.7576V91.6178C409.832 91.6857 409.874 91.7466 409.937 91.7713L412.486 92.7663L409.94 93.6946C409.875 93.7183 409.832 93.7802 409.832 93.8494V94.5656C409.832 94.6816 409.948 94.7613 410.056 94.7191L413.773 93.2686L417.489 94.7191C417.597 94.7613 417.713 94.6816 417.713 94.5656V93.8494C417.713 93.7802 417.67 93.7183 417.605 93.6946L415.059 92.7663L417.608 91.7713C417.672 91.7466 417.713 91.6857 417.713 91.6178V90.7576C417.713 90.6894 417.671 90.6283 417.608 90.6038L415.128 89.6478L417.603 88.7751C417.669 88.7519 417.713 88.6896 417.713 88.6197V87.8461C417.713 87.7304 417.597 87.6507 417.489 87.6923L413.773 89.1253L410.056 87.6923C409.948 87.6507 409.832 87.7304 409.832 87.8461ZM413.773 90.1257L411.178 91.0404C411.032 91.0918 411.031 91.2976 411.177 91.3506L413.773 92.2972L416.369 91.3506C416.514 91.2976 416.513 91.0918 416.367 91.0404L413.773 90.1257Z" fill="white"/>
<ellipse cx="297.175" cy="252.25" rx="5.37873" ry="1.31341" fill="#23ADF3"/>
<ellipse cx="297.975" cy="133.327" rx="5.37873" ry="1.31341" fill="#23ADF3"/>
<path d="M298.015 132.658C301.007 132.658 303.433 130.308 303.433 127.41C303.433 124.512 301.007 122.162 298.015 122.162C295.022 122.162 292.596 124.512 292.596 127.41C292.596 130.308 295.022 132.658 298.015 132.658Z" fill="#6D63D6" stroke="white" stroke-width="0.812362" stroke-miterlimit="10"/>
<path fill-rule="evenodd" clip-rule="evenodd" d="M294.959 124.658V125.277C294.959 125.332 294.994 125.382 295.047 125.401L297.027 126.099L295.044 126.863C294.993 126.883 294.96 126.932 294.96 126.986V127.674C294.96 127.729 294.993 127.777 295.044 127.797L297.082 128.593L295.046 129.335C294.994 129.354 294.959 129.404 294.959 129.459V130.032C294.959 130.125 295.053 130.188 295.139 130.155L298.111 128.994L301.083 130.155C301.17 130.188 301.263 130.125 301.263 130.032V129.459C301.263 129.404 301.228 129.354 301.176 129.335L299.14 128.593L301.179 127.797C301.229 127.777 301.262 127.729 301.262 127.674V126.986C301.262 126.932 301.229 126.883 301.178 126.863L299.195 126.099L301.175 125.401C301.228 125.382 301.263 125.332 301.263 125.277V124.658C301.263 124.565 301.17 124.502 301.084 124.535L298.111 125.681L295.138 124.535C295.052 124.502 294.959 124.565 294.959 124.658ZM298.111 126.481L296.036 127.212C295.92 127.254 295.919 127.418 296.035 127.461L298.111 128.217L300.187 127.461C300.303 127.418 300.302 127.254 300.186 127.212L298.111 126.481Z" fill="white"/>
<ellipse cx="231.647" cy="187.427" rx="2.12046" ry="0.517787" fill="#23ADF3"/>
<path d="M297.029 250.879C300.022 250.879 302.448 248.529 302.448 245.631C302.448 242.732 300.022 240.383 297.029 240.383C294.037 240.383 291.611 242.732 291.611 245.631C291.611 248.529 294.037 250.879 297.029 250.879Z" fill="#6D63D6" stroke="white" stroke-width="0.812362" stroke-miterlimit="10"/>
<path fill-rule="evenodd" clip-rule="evenodd" d="M293.974 242.878V243.497C293.974 243.553 294.009 243.603 294.062 243.621L296.042 244.319L294.058 245.084C294.008 245.104 293.974 245.152 293.974 245.207V245.895C293.974 245.949 294.007 245.998 294.058 246.018L296.097 246.813L294.061 247.556C294.009 247.575 293.974 247.624 293.974 247.68V248.252C293.974 248.345 294.067 248.409 294.154 248.375L297.126 247.215L300.098 248.375C300.184 248.409 300.277 248.345 300.277 248.252V247.68C300.277 247.624 300.243 247.575 300.191 247.556L298.155 246.813L300.193 246.018C300.244 245.998 300.277 245.949 300.277 245.895V245.207C300.277 245.152 300.244 245.104 300.193 245.084L298.21 244.319L300.189 243.621C300.242 243.603 300.277 243.553 300.277 243.497V242.878C300.277 242.786 300.184 242.722 300.098 242.756L297.126 243.902L294.153 242.756C294.067 242.722 293.974 242.786 293.974 242.878ZM297.126 244.702L295.051 245.433C294.934 245.474 294.933 245.639 295.049 245.681L297.126 246.438L299.202 245.681C299.318 245.639 299.317 245.474 299.201 245.433L297.126 244.702Z" fill="white"/>
<path d="M380.277 177.146C381.909 177.146 383.232 175.864 383.232 174.283C383.232 172.702 381.909 171.421 380.277 171.421C378.644 171.421 377.321 172.702 377.321 174.283C377.321 175.864 378.644 177.146 380.277 177.146Z" fill="#6D63D6" stroke="white" stroke-width="0.443106" stroke-miterlimit="10"/>
<path fill-rule="evenodd" clip-rule="evenodd" d="M378.61 172.782V173.119C378.61 173.15 378.629 173.177 378.658 173.187L379.738 173.568L378.656 173.985C378.629 173.996 378.61 174.022 378.61 174.052V174.427C378.61 174.457 378.628 174.483 378.656 174.494L379.768 174.928L378.657 175.333C378.629 175.344 378.61 175.371 378.61 175.401V175.713C378.61 175.764 378.661 175.799 378.708 175.78L380.329 175.147L381.95 175.78C381.998 175.799 382.048 175.764 382.048 175.713V175.401C382.048 175.371 382.03 175.344 382.001 175.333L380.891 174.928L382.003 174.494C382.03 174.483 382.048 174.457 382.048 174.427V174.052C382.048 174.022 382.03 173.996 382.002 173.985L380.921 173.568L382 173.187C382.029 173.177 382.048 173.15 382.048 173.119V172.782C382.048 172.731 381.998 172.697 381.951 172.715L380.329 173.34L378.708 172.715C378.661 172.697 378.61 172.731 378.61 172.782ZM380.329 173.776L379.198 174.175C379.134 174.198 379.133 174.288 379.197 174.311L380.329 174.724L381.462 174.311C381.525 174.288 381.525 174.198 381.461 174.175L380.329 173.776Z" fill="white"/>
<path d="M231.516 186.997C233.148 186.997 234.471 185.716 234.471 184.135C234.471 182.554 233.148 181.272 231.516 181.272C229.884 181.272 228.56 182.554 228.56 184.135C228.56 185.716 229.884 186.997 231.516 186.997Z" fill="#6D63D6" stroke="white" stroke-width="0.443106" stroke-miterlimit="10"/>
<path fill-rule="evenodd" clip-rule="evenodd" d="M229.849 182.634V182.971C229.849 183.002 229.868 183.029 229.897 183.039L230.977 183.42L229.895 183.837C229.868 183.848 229.849 183.874 229.849 183.904V184.279C229.849 184.309 229.867 184.335 229.895 184.346L231.007 184.78L229.897 185.185C229.868 185.196 229.849 185.223 229.849 185.253V185.565C229.849 185.616 229.9 185.651 229.947 185.632L231.568 184.999L233.189 185.632C233.237 185.651 233.287 185.616 233.287 185.565V185.253C233.287 185.223 233.269 185.196 233.24 185.185L232.13 184.78L233.242 184.346C233.269 184.335 233.287 184.309 233.287 184.279V183.904C233.287 183.874 233.269 183.848 233.241 183.837L232.16 183.42L233.239 183.039C233.268 183.029 233.287 183.002 233.287 182.971V182.634C233.287 182.583 233.237 182.549 233.19 182.567L231.568 183.192L229.947 182.567C229.9 182.549 229.849 182.583 229.849 182.634ZM231.568 183.628L230.437 184.027C230.373 184.05 230.373 184.14 230.436 184.163L231.568 184.576L232.701 184.163C232.764 184.14 232.764 184.05 232.7 184.027L231.568 183.628Z" fill="white"/>
<path d="M121.669 177.976C124.661 177.976 127.087 175.626 127.087 172.728C127.087 169.83 124.661 167.48 121.669 167.48C118.676 167.48 116.25 169.83 116.25 172.728C116.25 175.626 118.676 177.976 121.669 177.976Z" fill="#6D63D6" stroke="white" stroke-width="0.812362" stroke-miterlimit="10"/>
<path fill-rule="evenodd" clip-rule="evenodd" d="M118.613 169.976V170.594C118.613 170.65 118.649 170.7 118.701 170.719L120.681 171.417L118.698 172.181C118.647 172.201 118.614 172.25 118.614 172.304V172.992C118.614 173.046 118.647 173.095 118.698 173.115L120.736 173.911L118.7 174.653C118.648 174.672 118.613 174.721 118.613 174.777V175.35C118.613 175.442 118.707 175.506 118.793 175.472L121.765 174.312L124.737 175.472C124.824 175.506 124.917 175.442 124.917 175.35V174.777C124.917 174.721 124.882 174.672 124.83 174.653L122.794 173.911L124.833 173.115C124.883 173.095 124.916 173.046 124.916 172.992V172.304C124.916 172.25 124.883 172.201 124.832 172.181L122.849 171.417L124.829 170.719C124.882 170.7 124.917 170.65 124.917 170.594V169.976C124.917 169.883 124.824 169.819 124.738 169.853L121.765 170.999L118.792 169.853C118.706 169.819 118.613 169.883 118.613 169.976ZM121.765 171.799L119.69 172.53C119.574 172.571 119.573 172.736 119.689 172.778L121.765 173.535L123.841 172.778C123.957 172.736 123.956 172.571 123.84 172.53L121.765 171.799Z" fill="white"/>
<defs>
<filter id="filter0_f_322_15208" x="279.78" y="253.162" width="35.4869" height="26.5138" filterUnits="userSpaceOnUse" color-interpolation-filters="sRGB">
<feFlood flood-opacity="0" result="BackgroundImageFix"/>
<feBlend mode="normal" in="SourceGraphic" in2="BackgroundImageFix" result="shape"/>
<feGaussianBlur stdDeviation="0.507856" result="effect1_foregroundBlur_322_15208"/>
</filter>
<filter id="filter1_i_322_15208" x="280.792" y="237.277" width="33.4885" height="20.3263" filterUnits="userSpaceOnUse" color-interpolation-filters="sRGB">
<feFlood flood-opacity="0" result="BackgroundImageFix"/>
<feBlend mode="normal" in="SourceGraphic" in2="BackgroundImageFix" result="shape"/>
<feColorMatrix in="SourceAlpha" type="matrix" values="0 0 0 0 0 0 0 0 0 0 0 0 0 0 0 0 0 0 127 0" result="hardAlpha"/>
<feOffset dy="1.01571"/>
<feGaussianBlur stdDeviation="0.507856"/>
<feComposite in2="hardAlpha" operator="arithmetic" k2="-1" k3="1"/>
<feColorMatrix type="matrix" values="0 0 0 0 0 0 0 0 0 0 0 0 0 0 0 0 0 0 0.25 0"/>
<feBlend mode="normal" in2="shape" result="effect1_innerShadow_322_15208"/>
</filter>
<filter id="filter2_f_322_15208" x="279.804" y="138.283" width="35.4869" height="26.5138" filterUnits="userSpaceOnUse" color-interpolation-filters="sRGB">
<feFlood flood-opacity="0" result="BackgroundImageFix"/>
<feBlend mode="normal" in="SourceGraphic" in2="BackgroundImageFix" result="shape"/>
<feGaussianBlur stdDeviation="0.507856" result="effect1_foregroundBlur_322_15208"/>
</filter>
<filter id="filter3_i_322_15208" x="280.817" y="122.399" width="33.4885" height="20.3263" filterUnits="userSpaceOnUse" color-interpolation-filters="sRGB">
<feFlood flood-opacity="0" result="BackgroundImageFix"/>
<feBlend mode="normal" in="SourceGraphic" in2="BackgroundImageFix" result="shape"/>
<feColorMatrix in="SourceAlpha" type="matrix" values="0 0 0 0 0 0 0 0 0 0 0 0 0 0 0 0 0 0 127 0" result="hardAlpha"/>
<feOffset dy="1.01571"/>
<feGaussianBlur stdDeviation="0.507856"/>
<feComposite in2="hardAlpha" operator="arithmetic" k2="-1" k3="1"/>
<feColorMatrix type="matrix" values="0 0 0 0 0 0 0 0 0 0 0 0 0 0 0 0 0 0 0.25 0"/>
<feBlend mode="normal" in2="shape" result="effect1_innerShadow_322_15208"/>
</filter>
<filter id="filter4_f_322_15208" x="390.367" y="96.7221" width="50.6074" height="54.8674" filterUnits="userSpaceOnUse" color-interpolation-filters="sRGB">
<feFlood flood-opacity="0" result="BackgroundImageFix"/>
<feBlend mode="normal" in="SourceGraphic" in2="BackgroundImageFix" result="shape"/>
<feGaussianBlur stdDeviation="0.507856" result="effect1_foregroundBlur_322_15208"/>
</filter>
<filter id="filter5_d_322_15208" x="390.367" y="81.0332" width="50.6074" height="30.0719" filterUnits="userSpaceOnUse" color-interpolation-filters="sRGB">
<feFlood flood-opacity="0" result="BackgroundImageFix"/>
<feColorMatrix in="SourceAlpha" type="matrix" values="0 0 0 0 0 0 0 0 0 0 0 0 0 0 0 0 0 0 127 0" result="hardAlpha"/>
<feOffset dy="1.01571"/>
<feGaussianBlur stdDeviation="0.507856"/>
<feComposite in2="hardAlpha" operator="out"/>
<feColorMatrix type="matrix" values="0 0 0 0 0 0 0 0 0 0 0 0 0 0 0 0 0 0 0.25 0"/>
<feBlend mode="normal" in2="BackgroundImageFix" result="effect1_dropShadow_322_15208"/>
<feBlend mode="normal" in="SourceGraphic" in2="effect1_dropShadow_322_15208" result="shape"/>
</filter>
<filter id="filter6_f_322_15208" x="390.368" y="218.014" width="50.6074" height="54.8674" filterUnits="userSpaceOnUse" color-interpolation-filters="sRGB">
<feFlood flood-opacity="0" result="BackgroundImageFix"/>
<feBlend mode="normal" in="SourceGraphic" in2="BackgroundImageFix" result="shape"/>
<feGaussianBlur stdDeviation="0.507856" result="effect1_foregroundBlur_322_15208"/>
</filter>
<filter id="filter7_d_322_15208" x="390.368" y="202.325" width="50.6074" height="30.0719" filterUnits="userSpaceOnUse" color-interpolation-filters="sRGB">
<feFlood flood-opacity="0" result="BackgroundImageFix"/>
<feColorMatrix in="SourceAlpha" type="matrix" values="0 0 0 0 0 0 0 0 0 0 0 0 0 0 0 0 0 0 127 0" result="hardAlpha"/>
<feOffset dy="1.01571"/>
<feGaussianBlur stdDeviation="0.507856"/>
<feComposite in2="hardAlpha" operator="out"/>
<feColorMatrix type="matrix" values="0 0 0 0 0 0 0 0 0 0 0 0 0 0 0 0 0 0 0.25 0"/>
<feBlend mode="normal" in2="BackgroundImageFix" result="effect1_dropShadow_322_15208"/>
<feBlend mode="normal" in="SourceGraphic" in2="effect1_dropShadow_322_15208" result="shape"/>
</filter>
<filter id="filter8_f_322_15208" x="155.275" y="96.7221" width="50.6074" height="54.8674" filterUnits="userSpaceOnUse" color-interpolation-filters="sRGB">
<feFlood flood-opacity="0" result="BackgroundImageFix"/>
<feBlend mode="normal" in="SourceGraphic" in2="BackgroundImageFix" result="shape"/>
<feGaussianBlur stdDeviation="0.507856" result="effect1_foregroundBlur_322_15208"/>
</filter>
<filter id="filter9_d_322_15208" x="155.275" y="81.0332" width="50.6074" height="30.0719" filterUnits="userSpaceOnUse" color-interpolation-filters="sRGB">
<feFlood flood-opacity="0" result="BackgroundImageFix"/>
<feColorMatrix in="SourceAlpha" type="matrix" values="0 0 0 0 0 0 0 0 0 0 0 0 0 0 0 0 0 0 127 0" result="hardAlpha"/>
<feOffset dy="1.01571"/>
<feGaussianBlur stdDeviation="0.507856"/>
<feComposite in2="hardAlpha" operator="out"/>
<feColorMatrix type="matrix" values="0 0 0 0 0 0 0 0 0 0 0 0 0 0 0 0 0 0 0.25 0"/>
<feBlend mode="normal" in2="BackgroundImageFix" result="effect1_dropShadow_322_15208"/>
<feBlend mode="normal" in="SourceGraphic" in2="effect1_dropShadow_322_15208" result="shape"/>
</filter>
<filter id="filter10_f_322_15208" x="155.275" y="218.014" width="50.6074" height="54.8674" filterUnits="userSpaceOnUse" color-interpolation-filters="sRGB">
<feFlood flood-opacity="0" result="BackgroundImageFix"/>
<feBlend mode="normal" in="SourceGraphic" in2="BackgroundImageFix" result="shape"/>
<feGaussianBlur stdDeviation="0.507856" result="effect1_foregroundBlur_322_15208"/>
</filter>
<filter id="filter11_d_322_15208" x="155.275" y="202.325" width="50.6074" height="30.0719" filterUnits="userSpaceOnUse" color-interpolation-filters="sRGB">
<feFlood flood-opacity="0" result="BackgroundImageFix"/>
<feColorMatrix in="SourceAlpha" type="matrix" values="0 0 0 0 0 0 0 0 0 0 0 0 0 0 0 0 0 0 127 0" result="hardAlpha"/>
<feOffset dy="1.01571"/>
<feGaussianBlur stdDeviation="0.507856"/>
<feComposite in2="hardAlpha" operator="out"/>
<feColorMatrix type="matrix" values="0 0 0 0 0 0 0 0 0 0 0 0 0 0 0 0 0 0 0.25 0"/>
<feBlend mode="normal" in2="BackgroundImageFix" result="effect1_dropShadow_322_15208"/>
<feBlend mode="normal" in="SourceGraphic" in2="effect1_dropShadow_322_15208" result="shape"/>
</filter>
<filter id="filter12_f_322_15208" x="102.874" y="183.834" width="35.5103" height="26.5226" filterUnits="userSpaceOnUse" color-interpolation-filters="sRGB">
<feFlood flood-opacity="0" result="BackgroundImageFix"/>
<feBlend mode="normal" in="SourceGraphic" in2="BackgroundImageFix" result="shape"/>
<feGaussianBlur stdDeviation="0.507856" result="effect1_foregroundBlur_322_15208"/>
</filter>
<filter id="filter13_d_322_15208" x="102.837" y="165.594" width="35.5492" height="21.3581" filterUnits="userSpaceOnUse" color-interpolation-filters="sRGB">
<feFlood flood-opacity="0" result="BackgroundImageFix"/>
<feColorMatrix in="SourceAlpha" type="matrix" values="0 0 0 0 0 0 0 0 0 0 0 0 0 0 0 0 0 0 127 0" result="hardAlpha"/>
<feOffset dy="1.01571"/>
<feGaussianBlur stdDeviation="0.507856"/>
<feComposite in2="hardAlpha" operator="out"/>
<feColorMatrix type="matrix" values="0 0 0 0 0 0 0 0 0 0 0 0 0 0 0 0 0 0 0.25 0"/>
<feBlend mode="normal" in2="BackgroundImageFix" result="effect1_dropShadow_322_15208"/>
<feBlend mode="normal" in="SourceGraphic" in2="effect1_dropShadow_322_15208" result="shape"/>
</filter>
<filter id="filter14_f_322_15208" x="220.08" y="189.442" width="22.8942" height="17.2375" filterUnits="userSpaceOnUse" color-interpolation-filters="sRGB">
<feFlood flood-opacity="0" result="BackgroundImageFix"/>
<feBlend mode="normal" in="SourceGraphic" in2="BackgroundImageFix" result="shape"/>
<feGaussianBlur stdDeviation="0.507856" result="effect1_foregroundBlur_322_15208"/>
</filter>
<filter id="filter15_d_322_15208" x="220.086" y="178.48" width="22.8631" height="14.0158" filterUnits="userSpaceOnUse" color-interpolation-filters="sRGB">
<feFlood flood-opacity="0" result="BackgroundImageFix"/>
<feColorMatrix in="SourceAlpha" type="matrix" values="0 0 0 0 0 0 0 0 0 0 0 0 0 0 0 0 0 0 127 0" result="hardAlpha"/>
<feOffset dy="1.01571"/>
<feGaussianBlur stdDeviation="0.507856"/>
<feComposite in2="hardAlpha" operator="out"/>
<feColorMatrix type="matrix" values="0 0 0 0 0 0 0 0 0 0 0 0 0 0 0 0 0 0 0.25 0"/>
<feBlend mode="normal" in2="BackgroundImageFix" result="effect1_dropShadow_322_15208"/>
<feBlend mode="normal" in="SourceGraphic" in2="effect1_dropShadow_322_15208" result="shape"/>
</filter>
<filter id="filter16_f_322_15208" x="475.214" y="193.975" width="35.5103" height="26.5226" filterUnits="userSpaceOnUse" color-interpolation-filters="sRGB">
<feFlood flood-opacity="0" result="BackgroundImageFix"/>
<feBlend mode="normal" in="SourceGraphic" in2="BackgroundImageFix" result="shape"/>
<feGaussianBlur stdDeviation="0.507856" result="effect1_foregroundBlur_322_15208"/>
</filter>
<filter id="filter17_d_322_15208" x="475.171" y="175.734" width="35.5492" height="21.3586" filterUnits="userSpaceOnUse" color-interpolation-filters="sRGB">
<feFlood flood-opacity="0" result="BackgroundImageFix"/>
<feColorMatrix in="SourceAlpha" type="matrix" values="0 0 0 0 0 0 0 0 0 0 0 0 0 0 0 0 0 0 127 0" result="hardAlpha"/>
<feOffset dy="1.01571"/>
<feGaussianBlur stdDeviation="0.507856"/>
<feComposite in2="hardAlpha" operator="out"/>
<feColorMatrix type="matrix" values="0 0 0 0 0 0 0 0 0 0 0 0 0 0 0 0 0 0 0.25 0"/>
<feBlend mode="normal" in2="BackgroundImageFix" result="effect1_dropShadow_322_15208"/>
<feBlend mode="normal" in="SourceGraphic" in2="effect1_dropShadow_322_15208" result="shape"/>
</filter>
<filter id="filter18_f_322_15208" x="368.095" y="181.27" width="22.8631" height="17.2375" filterUnits="userSpaceOnUse" color-interpolation-filters="sRGB">
<feFlood flood-opacity="0" result="BackgroundImageFix"/>
<feBlend mode="normal" in="SourceGraphic" in2="BackgroundImageFix" result="shape"/>
<feGaussianBlur stdDeviation="0.507856" result="effect1_foregroundBlur_322_15208"/>
</filter>
<filter id="filter19_d_322_15208" x="368.095" y="170.309" width="22.8631" height="14.0158" filterUnits="userSpaceOnUse" color-interpolation-filters="sRGB">
<feFlood flood-opacity="0" result="BackgroundImageFix"/>
<feColorMatrix in="SourceAlpha" type="matrix" values="0 0 0 0 0 0 0 0 0 0 0 0 0 0 0 0 0 0 127 0" result="hardAlpha"/>
<feOffset dy="1.01571"/>
<feGaussianBlur stdDeviation="0.507856"/>
<feComposite in2="hardAlpha" operator="out"/>
<feColorMatrix type="matrix" values="0 0 0 0 0 0 0 0 0 0 0 0 0 0 0 0 0 0 0.25 0"/>
<feBlend mode="normal" in2="BackgroundImageFix" result="effect1_dropShadow_322_15208"/>
<feBlend mode="normal" in="SourceGraphic" in2="effect1_dropShadow_322_15208" result="shape"/>
</filter>
<linearGradient id="paint0_linear_322_15208" x1="455.592" y1="14.6328" x2="324.139" y2="387.646" gradientUnits="userSpaceOnUse">
<stop stop-color="#6D63D6"/>
<stop offset="1" stop-color="#23ADF3"/>
</linearGradient>
<linearGradient id="paint1_linear_322_15208" x1="280.533" y1="268.563" x2="301.991" y2="284.732" gradientUnits="userSpaceOnUse">
<stop stop-color="#23ADF3"/>
<stop offset="1" stop-color="#4B3DDB"/>
</linearGradient>
<linearGradient id="paint2_linear_322_15208" x1="279.891" y1="246.118" x2="291.519" y2="292.997" gradientUnits="userSpaceOnUse">
<stop stop-color="#9F7AEA"/>
<stop offset="1" stop-color="#6CE5E6"/>
</linearGradient>
<linearGradient id="paint3_linear_322_15208" x1="286.781" y1="246.746" x2="319.904" y2="252.462" gradientUnits="userSpaceOnUse">
<stop stop-color="#6304FF"/>
<stop offset="1" stop-color="#23ADF3"/>
</linearGradient>
<linearGradient id="paint4_linear_322_15208" x1="297.536" y1="237.277" x2="297.536" y2="256.588" gradientUnits="userSpaceOnUse">
<stop stop-color="#6CE5E6"/>
<stop offset="1" stop-color="#23ADF3"/>
</linearGradient>
<linearGradient id="paint5_linear_322_15208" x1="281.646" y1="133.297" x2="330.384" y2="142.68" gradientUnits="userSpaceOnUse">
<stop stop-color="#6304FF"/>
<stop offset="1" stop-color="#23ADF3"/>
</linearGradient>
<linearGradient id="paint6_linear_322_15208" x1="279.917" y1="131.24" x2="291.545" y2="178.119" gradientUnits="userSpaceOnUse">
<stop stop-color="#9F7AEA"/>
<stop offset="1" stop-color="#6CE5E6"/>
</linearGradient>
<linearGradient id="paint7_linear_322_15208" x1="286.805" y1="131.867" x2="319.928" y2="137.583" gradientUnits="userSpaceOnUse">
<stop stop-color="#6304FF"/>
<stop offset="1" stop-color="#23ADF3"/>
</linearGradient>
<linearGradient id="paint8_linear_322_15208" x1="297.561" y1="122.399" x2="297.561" y2="141.71" gradientUnits="userSpaceOnUse">
<stop stop-color="#6CE5E6"/>
<stop offset="1" stop-color="#23ADF3"/>
</linearGradient>
<linearGradient id="paint9_linear_322_15208" x1="393.269" y1="84.6712" x2="463.195" y2="93.8789" gradientUnits="userSpaceOnUse">
<stop stop-color="#6304FF"/>
<stop offset="1" stop-color="#23ADF3"/>
</linearGradient>
<linearGradient id="paint10_linear_322_15208" x1="415.66" y1="89.1553" x2="454.701" y2="105.2" gradientUnits="userSpaceOnUse">
<stop stop-color="#6D63D6"/>
<stop offset="1" stop-color="#786DEE"/>
</linearGradient>
<linearGradient id="paint11_linear_322_15208" x1="415.672" y1="160.63" x2="415.672" y2="129.391" gradientUnits="userSpaceOnUse">
<stop stop-color="#0299ED"/>
<stop offset="1"/>
</linearGradient>
<linearGradient id="paint12_linear_322_15208" x1="415.672" y1="146.095" x2="415.672" y2="114.855" gradientUnits="userSpaceOnUse">
<stop stop-color="#0299ED"/>
<stop offset="1"/>
</linearGradient>
<linearGradient id="paint13_linear_322_15208" x1="415.672" y1="131.559" x2="415.672" y2="100.32" gradientUnits="userSpaceOnUse">
<stop stop-color="#0299ED"/>
<stop offset="1"/>
</linearGradient>
<linearGradient id="paint14_linear_322_15208" x1="415.66" y1="89.1553" x2="415.66" y2="165.366" gradientUnits="userSpaceOnUse">
<stop stop-color="#6CE5E6"/>
<stop offset="1" stop-color="#23ADF3"/>
</linearGradient>
<linearGradient id="paint15_linear_322_15208" x1="400.073" y1="81.6983" x2="448.94" y2="87.3721" gradientUnits="userSpaceOnUse">
<stop stop-color="#6304FF"/>
<stop offset="1" stop-color="#23ADF3"/>
</linearGradient>
<linearGradient id="paint16_linear_322_15208" x1="415.672" y1="117.024" x2="415.672" y2="85.7846" gradientUnits="userSpaceOnUse">
<stop stop-color="#0299ED"/>
<stop offset="1"/>
</linearGradient>
<linearGradient id="paint17_linear_322_15208" x1="399.007" y1="93.8608" x2="418.026" y2="110.146" gradientUnits="userSpaceOnUse">
<stop stop-color="#23ADF3"/>
<stop offset="1" stop-color="#4B3DDB"/>
</linearGradient>
<linearGradient id="paint18_linear_322_15208" x1="415.671" y1="81.0332" x2="415.671" y2="109.074" gradientUnits="userSpaceOnUse">
<stop stop-color="#6CE5E6"/>
<stop offset="1" stop-color="#23ADF3"/>
</linearGradient>
<linearGradient id="paint19_linear_322_15208" x1="393.271" y1="205.958" x2="463.198" y2="215.164" gradientUnits="userSpaceOnUse">
<stop stop-color="#6304FF"/>
<stop offset="1" stop-color="#23ADF3"/>
</linearGradient>
<linearGradient id="paint20_linear_322_15208" x1="415.668" y1="210.447" x2="454.702" y2="226.487" gradientUnits="userSpaceOnUse">
<stop stop-color="#6D63D6"/>
<stop offset="1" stop-color="#786DEE"/>
</linearGradient>
<linearGradient id="paint21_linear_322_15208" x1="415.672" y1="281.922" x2="415.672" y2="250.682" gradientUnits="userSpaceOnUse">
<stop stop-color="#0299ED"/>
<stop offset="1"/>
</linearGradient>
<linearGradient id="paint22_linear_322_15208" x1="415.672" y1="267.387" x2="415.672" y2="236.147" gradientUnits="userSpaceOnUse">
<stop stop-color="#0299ED"/>
<stop offset="1"/>
</linearGradient>
<linearGradient id="paint23_linear_322_15208" x1="415.672" y1="252.851" x2="415.672" y2="221.612" gradientUnits="userSpaceOnUse">
<stop stop-color="#0299ED"/>
<stop offset="1"/>
</linearGradient>
<linearGradient id="paint24_linear_322_15208" x1="415.668" y1="210.447" x2="415.668" y2="286.65" gradientUnits="userSpaceOnUse">
<stop stop-color="#6CE5E6"/>
<stop offset="1" stop-color="#23ADF3"/>
</linearGradient>
<linearGradient id="paint25_linear_322_15208" x1="400.073" y1="202.99" x2="448.94" y2="208.664" gradientUnits="userSpaceOnUse">
<stop stop-color="#6304FF"/>
<stop offset="1" stop-color="#23ADF3"/>
</linearGradient>
<linearGradient id="paint26_linear_322_15208" x1="415.672" y1="238.316" x2="415.672" y2="207.077" gradientUnits="userSpaceOnUse">
<stop stop-color="#0299ED"/>
<stop offset="1"/>
</linearGradient>
<linearGradient id="paint27_linear_322_15208" x1="400.073" y1="197.573" x2="447.337" y2="207.913" gradientUnits="userSpaceOnUse">
<stop stop-color="#6304FF"/>
<stop offset="1" stop-color="#23ADF3"/>
</linearGradient>
<linearGradient id="paint28_linear_322_15208" x1="415.671" y1="202.325" x2="415.671" y2="230.366" gradientUnits="userSpaceOnUse">
<stop stop-color="#6CE5E6"/>
<stop offset="1" stop-color="#23ADF3"/>
</linearGradient>
<linearGradient id="paint29_linear_322_15208" x1="158.177" y1="84.6712" x2="228.103" y2="93.8789" gradientUnits="userSpaceOnUse">
<stop stop-color="#6304FF"/>
<stop offset="1" stop-color="#23ADF3"/>
</linearGradient>
<linearGradient id="paint30_linear_322_15208" x1="141.981" y1="127.261" x2="220.205" y2="127.261" gradientUnits="userSpaceOnUse">
<stop stop-color="#0C5FE7"/>
<stop offset="1" stop-color="#0299ED"/>
</linearGradient>
<linearGradient id="paint31_linear_322_15208" x1="180.578" y1="160.63" x2="180.578" y2="129.39" gradientUnits="userSpaceOnUse">
<stop stop-color="#0299ED"/>
<stop offset="1"/>
</linearGradient>
<linearGradient id="paint32_linear_322_15208" x1="180.578" y1="146.095" x2="180.578" y2="114.855" gradientUnits="userSpaceOnUse">
<stop stop-color="#0299ED"/>
<stop offset="1"/>
</linearGradient>
<linearGradient id="paint33_linear_322_15208" x1="180.578" y1="131.559" x2="180.578" y2="100.32" gradientUnits="userSpaceOnUse">
<stop stop-color="#0299ED"/>
<stop offset="1"/>
</linearGradient>
<linearGradient id="paint34_linear_322_15208" x1="180.582" y1="89.1553" x2="180.582" y2="165.366" gradientUnits="userSpaceOnUse">
<stop stop-color="#6CE5E6"/>
<stop offset="1" stop-color="#23ADF3"/>
</linearGradient>
<linearGradient id="paint35_linear_322_15208" x1="164.981" y1="81.6983" x2="213.848" y2="87.3721" gradientUnits="userSpaceOnUse">
<stop stop-color="#6304FF"/>
<stop offset="1" stop-color="#23ADF3"/>
</linearGradient>
<linearGradient id="paint36_linear_322_15208" x1="180.578" y1="117.024" x2="180.578" y2="85.7846" gradientUnits="userSpaceOnUse">
<stop stop-color="#0299ED"/>
<stop offset="1"/>
</linearGradient>
<linearGradient id="paint37_linear_322_15208" x1="164.981" y1="76.2811" x2="212.245" y2="86.621" gradientUnits="userSpaceOnUse">
<stop stop-color="#6304FF"/>
<stop offset="1" stop-color="#23ADF3"/>
</linearGradient>
<linearGradient id="paint38_linear_322_15208" x1="180.579" y1="81.0332" x2="180.579" y2="109.074" gradientUnits="userSpaceOnUse">
<stop stop-color="#6CE5E6"/>
<stop offset="1" stop-color="#23ADF3"/>
</linearGradient>
<linearGradient id="paint39_linear_322_15208" x1="158.177" y1="205.958" x2="228.103" y2="215.164" gradientUnits="userSpaceOnUse">
<stop stop-color="#6304FF"/>
<stop offset="1" stop-color="#23ADF3"/>
</linearGradient>
<linearGradient id="paint40_linear_322_15208" x1="180.578" y1="281.922" x2="180.578" y2="250.682" gradientUnits="userSpaceOnUse">
<stop stop-color="#0299ED"/>
<stop offset="1"/>
</linearGradient>
<linearGradient id="paint41_linear_322_15208" x1="180.578" y1="267.387" x2="180.578" y2="236.147" gradientUnits="userSpaceOnUse">
<stop stop-color="#0299ED"/>
<stop offset="1"/>
</linearGradient>
<linearGradient id="paint42_linear_322_15208" x1="180.578" y1="252.851" x2="180.578" y2="221.611" gradientUnits="userSpaceOnUse">
<stop stop-color="#0299ED"/>
<stop offset="1"/>
</linearGradient>
<linearGradient id="paint43_linear_322_15208" x1="180.582" y1="210.447" x2="180.582" y2="286.65" gradientUnits="userSpaceOnUse">
<stop stop-color="#6CE5E6"/>
<stop offset="1" stop-color="#23ADF3"/>
</linearGradient>
<linearGradient id="paint44_linear_322_15208" x1="164.981" y1="202.99" x2="213.848" y2="208.664" gradientUnits="userSpaceOnUse">
<stop stop-color="#6304FF"/>
<stop offset="1" stop-color="#23ADF3"/>
</linearGradient>
<linearGradient id="paint45_linear_322_15208" x1="180.578" y1="238.316" x2="180.578" y2="207.077" gradientUnits="userSpaceOnUse">
<stop stop-color="#0299ED"/>
<stop offset="1"/>
</linearGradient>
<linearGradient id="paint46_linear_322_15208" x1="164.981" y1="197.573" x2="212.245" y2="207.913" gradientUnits="userSpaceOnUse">
<stop stop-color="#6304FF"/>
<stop offset="1" stop-color="#23ADF3"/>
</linearGradient>
<linearGradient id="paint47_linear_322_15208" x1="180.579" y1="202.325" x2="180.579" y2="230.366" gradientUnits="userSpaceOnUse">
<stop stop-color="#6CE5E6"/>
<stop offset="1" stop-color="#23ADF3"/>
</linearGradient>
<linearGradient id="paint48_linear_322_15208" x1="104.675" y1="178.847" x2="153.459" y2="188.239" gradientUnits="userSpaceOnUse">
<stop stop-color="#6304FF"/>
<stop offset="1" stop-color="#23ADF3"/>
</linearGradient>
<linearGradient id="paint49_linear_322_15208" x1="102.95" y1="176.783" x2="114.577" y2="223.683" gradientUnits="userSpaceOnUse">
<stop stop-color="#9F7AEA"/>
<stop offset="1" stop-color="#6CE5E6"/>
</linearGradient>
<linearGradient id="paint50_linear_322_15208" x1="109.879" y1="177.415" x2="143.024" y2="183.137" gradientUnits="userSpaceOnUse">
<stop stop-color="#6304FF"/>
<stop offset="1" stop-color="#23ADF3"/>
</linearGradient>
<linearGradient id="paint51_linear_322_15208" x1="120.609" y1="214.1" x2="120.609" y2="192.301" gradientUnits="userSpaceOnUse">
<stop stop-color="#0299ED"/>
<stop offset="1"/>
</linearGradient>
<linearGradient id="paint52_linear_322_15208" x1="120.609" y1="206.173" x2="120.609" y2="184.382" gradientUnits="userSpaceOnUse">
<stop stop-color="#0299ED"/>
<stop offset="1"/>
</linearGradient>
<linearGradient id="paint53_linear_322_15208" x1="120.609" y1="198.246" x2="120.609" y2="176.455" gradientUnits="userSpaceOnUse">
<stop stop-color="#0299ED"/>
<stop offset="1"/>
</linearGradient>
<linearGradient id="paint54_linear_322_15208" x1="120.609" y1="190.319" x2="120.609" y2="168.528" gradientUnits="userSpaceOnUse">
<stop stop-color="#0299ED"/>
<stop offset="1"/>
</linearGradient>
<linearGradient id="paint55_linear_322_15208" x1="120.607" y1="176.783" x2="120.607" y2="217.401" gradientUnits="userSpaceOnUse">
<stop stop-color="#6CE5E6"/>
<stop offset="1" stop-color="#23ADF3"/>
</linearGradient>
<linearGradient id="paint56_linear_322_15208" x1="109.849" y1="162.067" x2="142.458" y2="169.209" gradientUnits="userSpaceOnUse">
<stop stop-color="#6304FF"/>
<stop offset="1" stop-color="#23ADF3"/>
</linearGradient>
<linearGradient id="paint57_linear_322_15208" x1="120.612" y1="165.594" x2="120.612" y2="184.921" gradientUnits="userSpaceOnUse">
<stop stop-color="#6CE5E6"/>
<stop offset="1" stop-color="#23ADF3"/>
</linearGradient>
<linearGradient id="paint58_linear_322_15208" x1="221.616" y1="186.717" x2="252.045" y2="192.595" gradientUnits="userSpaceOnUse">
<stop stop-color="#6304FF"/>
<stop offset="1" stop-color="#23ADF3"/>
</linearGradient>
<linearGradient id="paint59_linear_322_15208" x1="220.539" y1="185.402" x2="227.764" y2="214.555" gradientUnits="userSpaceOnUse">
<stop stop-color="#9F7AEA"/>
<stop offset="1" stop-color="#6CE5E6"/>
</linearGradient>
<linearGradient id="paint60_linear_322_15208" x1="231.528" y1="190.458" x2="231.528" y2="205.664" gradientUnits="userSpaceOnUse">
<stop stop-color="#6CE5E6"/>
<stop offset="1" stop-color="#23ADF3"/>
</linearGradient>
<linearGradient id="paint61_linear_322_15208" x1="231.518" y1="208.636" x2="231.518" y2="195.084" gradientUnits="userSpaceOnUse">
<stop stop-color="#0299ED"/>
<stop offset="1"/>
</linearGradient>
<linearGradient id="paint62_linear_322_15208" x1="231.518" y1="203.706" x2="231.518" y2="190.161" gradientUnits="userSpaceOnUse">
<stop stop-color="#0299ED"/>
<stop offset="1"/>
</linearGradient>
<linearGradient id="paint63_linear_322_15208" x1="231.518" y1="198.783" x2="231.518" y2="185.231" gradientUnits="userSpaceOnUse">
<stop stop-color="#0299ED"/>
<stop offset="1"/>
</linearGradient>
<linearGradient id="paint64_linear_322_15208" x1="231.518" y1="193.852" x2="231.518" y2="180.307" gradientUnits="userSpaceOnUse">
<stop stop-color="#0299ED"/>
<stop offset="1"/>
</linearGradient>
<linearGradient id="paint65_linear_322_15208" x1="231.518" y1="185.402" x2="231.518" y2="210.649" gradientUnits="userSpaceOnUse">
<stop stop-color="#6CE5E6"/>
<stop offset="1" stop-color="#23ADF3"/>
</linearGradient>
<linearGradient id="paint66_linear_322_15208" x1="224.847" y1="176.303" x2="245.084" y2="180.752" gradientUnits="userSpaceOnUse">
<stop stop-color="#6304FF"/>
<stop offset="1" stop-color="#23ADF3"/>
</linearGradient>
<linearGradient id="paint67_linear_322_15208" x1="231.517" y1="178.48" x2="231.517" y2="190.465" gradientUnits="userSpaceOnUse">
<stop stop-color="#6CE5E6"/>
<stop offset="1" stop-color="#23ADF3"/>
</linearGradient>
<linearGradient id="paint68_linear_322_15208" x1="477.016" y1="188.987" x2="525.793" y2="198.376" gradientUnits="userSpaceOnUse">
<stop stop-color="#6304FF"/>
<stop offset="1" stop-color="#23ADF3"/>
</linearGradient>
<linearGradient id="paint69_linear_322_15208" x1="492.954" y1="186.924" x2="492.954" y2="227.542" gradientUnits="userSpaceOnUse">
<stop stop-color="#6CE5E6"/>
<stop offset="1" stop-color="#23ADF3"/>
</linearGradient>
<linearGradient id="paint70_linear_322_15208" x1="492.951" y1="224.241" x2="492.951" y2="202.441" gradientUnits="userSpaceOnUse">
<stop stop-color="#0299ED"/>
<stop offset="1"/>
</linearGradient>
<linearGradient id="paint71_linear_322_15208" x1="492.951" y1="216.314" x2="492.951" y2="194.522" gradientUnits="userSpaceOnUse">
<stop stop-color="#0299ED"/>
<stop offset="1"/>
</linearGradient>
<linearGradient id="paint72_linear_322_15208" x1="492.951" y1="208.387" x2="492.951" y2="186.596" gradientUnits="userSpaceOnUse">
<stop stop-color="#0299ED"/>
<stop offset="1"/>
</linearGradient>
<linearGradient id="paint73_linear_322_15208" x1="492.951" y1="200.46" x2="492.951" y2="178.669" gradientUnits="userSpaceOnUse">
<stop stop-color="#0299ED"/>
<stop offset="1"/>
</linearGradient>
<linearGradient id="paint74_linear_322_15208" x1="492.954" y1="186.924" x2="492.954" y2="227.542" gradientUnits="userSpaceOnUse">
<stop stop-color="#6CE5E6"/>
<stop offset="1" stop-color="#23ADF3"/>
</linearGradient>
<linearGradient id="paint75_linear_322_15208" x1="482.183" y1="172.208" x2="514.792" y2="179.349" gradientUnits="userSpaceOnUse">
<stop stop-color="#6304FF"/>
<stop offset="1" stop-color="#23ADF3"/>
</linearGradient>
<linearGradient id="paint76_linear_322_15208" x1="492.946" y1="175.734" x2="492.946" y2="195.061" gradientUnits="userSpaceOnUse">
<stop stop-color="#6CE5E6"/>
<stop offset="1" stop-color="#23ADF3"/>
</linearGradient>
<linearGradient id="paint77_linear_322_15208" x1="369.59" y1="178.538" x2="399.957" y2="184.385" gradientUnits="userSpaceOnUse">
<stop stop-color="#6304FF"/>
<stop offset="1" stop-color="#23ADF3"/>
</linearGradient>
<linearGradient id="paint78_linear_322_15208" x1="379.531" y1="177.27" x2="379.531" y2="202.478" gradientUnits="userSpaceOnUse">
<stop stop-color="#6CE5E6"/>
<stop offset="1" stop-color="#23ADF3"/>
</linearGradient>
<linearGradient id="paint79_linear_322_15208" x1="379.527" y1="200.465" x2="379.527" y2="186.913" gradientUnits="userSpaceOnUse">
<stop stop-color="#0299ED"/>
<stop offset="1"/>
</linearGradient>
<linearGradient id="paint80_linear_322_15208" x1="379.527" y1="195.534" x2="379.527" y2="181.99" gradientUnits="userSpaceOnUse">
<stop stop-color="#0299ED"/>
<stop offset="1"/>
</linearGradient>
<linearGradient id="paint81_linear_322_15208" x1="379.527" y1="190.611" x2="379.527" y2="177.059" gradientUnits="userSpaceOnUse">
<stop stop-color="#0299ED"/>
<stop offset="1"/>
</linearGradient>
<linearGradient id="paint82_linear_322_15208" x1="379.527" y1="185.68" x2="379.527" y2="172.135" gradientUnits="userSpaceOnUse">
<stop stop-color="#0299ED"/>
<stop offset="1"/>
</linearGradient>
<linearGradient id="paint83_linear_322_15208" x1="379.531" y1="177.27" x2="379.531" y2="202.478" gradientUnits="userSpaceOnUse">
<stop stop-color="#6CE5E6"/>
<stop offset="1" stop-color="#23ADF3"/>
</linearGradient>
<linearGradient id="paint84_linear_322_15208" x1="372.837" y1="168.12" x2="393.101" y2="172.566" gradientUnits="userSpaceOnUse">
<stop stop-color="#6304FF"/>
<stop offset="1" stop-color="#23ADF3"/>
</linearGradient>
<linearGradient id="paint85_linear_322_15208" x1="379.526" y1="170.309" x2="379.526" y2="182.294" gradientUnits="userSpaceOnUse">
<stop stop-color="#6CE5E6"/>
<stop offset="1" stop-color="#23ADF3"/>
</linearGradient>
</defs>
</svg>
