<svg xmlns="http://www.w3.org/2000/svg" version="1.1" xmlns:xlink="http://www.w3.org/1999/xlink" xmlns:svgjs="http://svgjs.dev/svgjs" viewBox="0 0 2400 800" opacity="1"><defs><linearGradient x1="50%" y1="0%" x2="50%" y2="100%" id="sssurf-grad"><stop stop-color="hsl(184, 74%, 44%)" stop-opacity="1" offset="0%"></stop><stop stop-color="hsl(332, 87%, 70%)" stop-opacity="1" offset="100%"></stop></linearGradient></defs><g fill="url(#sssurf-grad)" transform="matrix(1,0,0,1,7.6488037109375,297.36248779296875)"><path d="M-10,10C54.58333333333333,44.791666666666664,172.91666666666666,192,300,177C427.08333333333337,162,475,-40.75,600,-62C725,-83.25,775,90.83333333333333,900,75C1025,59.16666666666667,1075,-138.83333333333334,1200,-138C1325,-137.16666666666666,1375,79.83333333333333,1500,79C1625,78.16666666666667,1675,-157.41666666666666,1800,-142C1925,-126.58333333333333,1975,126.33333333333334,2100,153C2225,179.66666666666666,2285.4166666666665,-65.45833333333333,2400,-14C2514.5833333333335,37.45833333333333,3254.1666666666665,209.58333333333331,2650,400C2045.8333333333335,590.4166666666667,156.25,795.8333333333334,-500,900" transform="matrix(1,0,0,1,0,62)" opacity="0.05"></path><path d="M-10,10C54.58333333333333,44.791666666666664,172.91666666666666,192,300,177C427.08333333333337,162,475,-40.75,600,-62C725,-83.25,775,90.83333333333333,900,75C1025,59.16666666666667,1075,-138.83333333333334,1200,-138C1325,-137.16666666666666,1375,79.83333333333333,1500,79C1625,78.16666666666667,1675,-157.41666666666666,1800,-142C1925,-126.58333333333333,1975,126.33333333333334,2100,153C2225,179.66666666666666,2285.4166666666665,-65.45833333333333,2400,-14C2514.5833333333335,37.45833333333333,3254.1666666666665,209.58333333333331,2650,400C2045.8333333333335,590.4166666666667,156.25,795.8333333333334,-500,900" transform="matrix(1,0,0,1,0,124)" opacity="0.53"></path><path d="M-10,10C54.58333333333333,44.791666666666664,172.91666666666666,192,300,177C427.08333333333337,162,475,-40.75,600,-62C725,-83.25,775,90.83333333333333,900,75C1025,59.16666666666667,1075,-138.83333333333334,1200,-138C1325,-137.16666666666666,1375,79.83333333333333,1500,79C1625,78.16666666666667,1675,-157.41666666666666,1800,-142C1925,-126.58333333333333,1975,126.33333333333334,2100,153C2225,179.66666666666666,2285.4166666666665,-65.45833333333333,2400,-14C2514.5833333333335,37.45833333333333,3254.1666666666665,209.58333333333331,2650,400C2045.8333333333335,590.4166666666667,156.25,795.8333333333334,-500,900" transform="matrix(1,0,0,1,0,186)" opacity="1.00"></path></g></svg>