  <svg    width="1000"    height="1000"    viewBox="0 0 1000 1000"    xmlns="http://www.w3.org/2000/svg"  >    <defs>                                    <pattern        id="pattern"        patternUnits="userSpaceOnUse"        width="35"        height="35"        viewBox="0 0 100 100"        fill="#ececec"      >        <circle          cx="50"          cy="50"          r="12.5"        />      </pattern>            <clipPath id="shape">        <path fill="currentColor" d="M890,695Q811,890,613,880Q415,870,280,770.5Q145,671,152,503.5Q159,336,275.5,182Q392,28,585.5,89Q779,150,874,325Q969,500,890,695Z"></path>      </clipPath>    </defs>          <g  clip-path="url(#shape)">      <path fill="url(#pattern)" d="M890,695Q811,890,613,880Q415,870,280,770.5Q145,671,152,503.5Q159,336,275.5,182Q392,28,585.5,89Q779,150,874,325Q969,500,890,695Z" />    </g>        </svg>